<?xml version="1.0" encoding="utf-8"?>
<!-- Generator: Adobe Illustrator 27.0.0, SVG Export Plug-In . SVG Version: 6.00 Build 0)  -->
<svg version="1.1" id="katman_1" xmlns="http://www.w3.org/2000/svg" xmlns:xlink="http://www.w3.org/1999/xlink" x="0px" y="0px"
	 viewBox="0 0 470.5 158.5" style="enable-background:new 0 0 470.5 158.5;" xml:space="preserve">
<style type="text/css">
	
		.st0{clip-path:url(#SVGID_00000115486197982205761980000017340624882902419075_);fill:url(#SVGID_00000133527979970182243510000002416187705327226545_);}
	.st1{fill:#434343;}
	
		.st2{clip-path:url(#SVGID_00000164514489205896773190000015389990011208619966_);fill:url(#SVGID_00000079466950404434456000000013618230141009889685_);}
</style>
<g>
	<g>
		<defs>
			<path id="SVGID_1_" d="M56.8,117.4c-7.7,0-15.3-0.9-22.7-2.8c-0.4-0.1-0.9-0.5-1.1-0.9c-2.4-5.1-4.1-10.3-5.3-15.8
				c-1.1-5.3-1.6-10.7-1.6-16.3c0.9,0.2,1.7,0.3,2.5,0.5c6.9,1.4,14,2.1,21,1.9c0.7,0,1.1,0.3,1.2,1c0.4,3,0.7,6.1,1.3,9
				c1,4.2,2.2,8.4,3.4,12.6c0.5,1.6,1.2,3.2,1.9,4.8c0.8,2,1.6,3.9,2.5,5.9c-0.9,0-1.7,0-2.5,0C57.2,117.4,57,117.4,56.8,117.4
				 M26.4,112.3c-4.9-1.7-9.6-3.9-14.2-6.5c-0.7-0.4-1.1-1-1.3-1.7c-2.2-7.7-3.5-15.6-3.3-23.6c0-1.8,0.2-3.6,0.3-5.2
				c4,1.5,7.8,3,11.6,4.3c1.2,0.4,1.2,1.1,1.2,2c-0.1,4.6,0.2,9.1,1.1,13.6c0.6,3,1.3,6,2.2,8.9c0.9,2.8,2,5.5,3.1,8.4
				C26.8,112.4,26.6,112.4,26.4,112.3z M26.3,78.9c0-0.2-0.1-0.2-0.1-0.3c0.8-12.5,4.7-24,11.3-34.6c0.2-0.3,0.7-0.5,1.1-0.5
				c4.1,0.3,8.3,0.7,12.4,1.1c1.7,0.1,3.3,0.1,5.1,0.1c-5.4,12.3-6.7,25-5.7,38.1C42.1,82.5,34.1,81.2,26.3,78.9z M9.4,71.6
				c-0.9-0.5-1.1-1-0.9-2c1.1-6.6,3-12.9,5.7-18.9c1.9-4.2,4.1-8.2,6.7-11.8c4.4,1.3,8.7,2.6,13,3.8c-7.5,10.2-11.8,21.6-13.1,34.6
				C16.8,75.3,13.1,73.4,9.4,71.6z M71.4,0.5c-24,2.7-43.3,13.9-57.1,33.8C0.9,53.6-3.2,75.1,2.5,97.8c11.9,47.9,59,67.9,95.1,58.4
				c-17.6,3.2-34.5,0.7-50.2-7.8c-15.8-8.5-27.1-21.2-34.2-38c1.1,0.4,2,0.8,2.9,1.2c3.9,1.3,7.9,2.6,11.8,4
				c0.5,0.2,1.1,0.6,1.4,1.1c4.5,7.9,10.3,14.7,17.6,20.1c3,2.3,6.4,4.1,9.7,6c-9-7.1-16.5-15.4-21.9-25.5c4.3,0.4,8.4,0.9,12.7,1.1
				c4.2,0.2,8.4,0,12.9,0c4.7,9.3,10.8,17.9,19.3,24.6c-6.1-7.7-11-16.1-14.7-25.2c2.1-0.4,4-0.7,6-1.1c0,0,0-0.1,0-0.1
				c-2.1,0.2-4.1,0.4-6.2,0.7c-4.4-10.8-7.2-21.8-8.4-33.3c4.3-0.6,8.6-1.2,12.8-1.8c0,0,0-0.1,0-0.1c-4.3,0.4-8.6,0.7-12.9,1.1
				c-0.9-9.1-0.9-17.9,0.8-26.7c0.7-3.7,1.7-7.2,2.6-10.9c0.2-0.7,0.4-1,1.3-1c3.5-0.3,7-0.8,10.5-1.3c1.2-0.2,2.4-0.4,3.8-0.6
				c-5,0.4-9.8,0.8-14.9,1.1c2-5.4,4.5-10.1,8-14.3c-0.1-0.1-0.2-0.2-0.3-0.2c-1.2,1.2-2.5,2.3-3.7,3.5c-2.8,3-5.1,6.4-7,10.1
				c-0.2,0.3-0.6,0.7-0.9,0.7c-5.5-0.1-11-0.8-16.4-1.9c-0.1,0-0.3-0.1-0.5-0.2C43.8,35,49.1,29.5,55,24.6
				c-4.7,2.4-8.9,5.3-12.7,8.9c-2.1,2-4,4.2-6.1,6.3c-0.3,0.3-0.9,0.6-1.3,0.5c-4-1.3-8-2.6-12.3-4C38.2,16.7,58,6.3,82.8,5.8
				c16.4-0.3,31.3,4.6,44.6,14.1c13.3,9.4,22.5,22,27.9,37.6C147.3,26,116.4,0,79.9,0C77.1,0,74.3,0.2,71.4,0.5z"/>
		</defs>
		
			<linearGradient id="SVGID_00000170972168982949916990000010359885151655400127_" gradientUnits="userSpaceOnUse" x1="3.1181" y1="98.6094" x2="145.9365" y2="62.2672">
			<stop  offset="0" style="stop-color:#926328"/>
			<stop  offset="0.55" style="stop-color:#E6B94A"/>
			<stop  offset="1" style="stop-color:#926328"/>
		</linearGradient>
		
			<use xlink:href="#SVGID_1_"  style="overflow:visible;fill-rule:evenodd;clip-rule:evenodd;fill:url(#SVGID_00000170972168982949916990000010359885151655400127_);"/>
		<clipPath id="SVGID_00000000915691623211816240000013064513307035806380_">
			<use xlink:href="#SVGID_1_"  style="overflow:visible;"/>
		</clipPath>
	</g>
	<g>
		<defs>
			<path id="SVGID_00000129892991216747505970000005540555910403899786_" d="M273.4,133.3h1.9v-1.9h-1.9V133.3z M294.4,133.3h1.9
				v-1.9h-1.9V133.3z M97.2,127l1.1,3.2h-2.2L97.2,127z M96.5,124.4l-3.2,8.9h1.8l0.5-1.6h3.2l0.5,1.6h1.8l-3.3-8.9H96.5z M109,126
				h1.6c0.4,0,0.7,0.1,0.9,0.3c0.2,0.2,0.4,0.5,0.4,0.8c0,0.3-0.1,0.6-0.4,0.9c-0.2,0.2-0.5,0.3-0.9,0.3H109V126z M107.2,124.4v8.9
				h1.7v-3.6h1.3l1.7,3.6h2l-2-3.9c0.5-0.2,0.8-0.4,1.1-0.8c0.3-0.4,0.5-0.9,0.5-1.5c0-0.8-0.3-1.4-0.8-1.9
				c-0.5-0.5-1.2-0.8-2.1-0.8H107.2z M120.4,133.3h1.7v-8.9h-1.7V133.3z M135.5,124.4l-2.3,4.8l-2.3-4.8h-1.7v8.9h1.7v-5.2l1.7,3.4
				h1.2l1.7-3.4v5.2h1.7v-8.9H135.5z M156.9,124.4v5.8c0,0.5-0.1,0.9-0.4,1.2c-0.3,0.3-0.7,0.4-1.1,0.4c-0.5,0-0.9-0.1-1.1-0.4
				c-0.3-0.3-0.4-0.7-0.4-1.2v-5.8h-1.7v5.9c0,0.9,0.3,1.7,0.9,2.3c0.6,0.6,1.4,0.9,2.3,0.9c0.9,0,1.7-0.3,2.3-0.9
				c0.6-0.6,0.9-1.3,0.9-2.3v-5.9H156.9z M167.3,126h1.6c0.4,0,0.7,0.1,0.9,0.3c0.2,0.2,0.3,0.5,0.3,0.8c0,0.3-0.1,0.6-0.3,0.9
				c-0.2,0.2-0.5,0.3-0.9,0.3h-1.6V126z M165.6,124.4v8.9h1.7v-3.6h1.3l1.7,3.6h2l-2-3.9c0.5-0.2,0.8-0.4,1.1-0.8
				c0.3-0.4,0.5-0.9,0.5-1.5c0-0.8-0.3-1.4-0.8-1.9c-0.5-0.5-1.2-0.8-2.1-0.8H165.6z M183.5,124.4v5.8c0,0.5-0.1,0.9-0.4,1.2
				c-0.3,0.3-0.7,0.4-1.1,0.4c-0.5,0-0.8-0.1-1.1-0.4c-0.3-0.3-0.4-0.7-0.4-1.2v-5.8h-1.7v5.9c0,0.9,0.3,1.7,0.9,2.3
				c0.6,0.6,1.4,0.9,2.3,0.9c0.9,0,1.7-0.3,2.3-0.9c0.6-0.6,0.9-1.3,0.9-2.3v-5.9H183.5z M197.2,124.4v5.5l-3.5-5.5h-1.5v8.9h1.7
				v-5.5l3.5,5.5h1.6v-8.9H197.2z M206,124.4v8.9h5.8v-1.6h-4v-7.4H206z M218.2,124.4v8.9h5.9v-1.6h-4.1v-2.2h3.5v-1.6h-3.5V126h4.1
				v-1.6H218.2z M232.5,126h1.6c0.4,0,0.7,0.1,0.9,0.3c0.2,0.2,0.4,0.5,0.4,0.8c0,0.3-0.1,0.6-0.4,0.9c-0.2,0.2-0.5,0.3-0.9,0.3
				h-1.6V126z M230.8,124.4v8.9h1.7v-3.6h1.3l1.7,3.6h2l-2-3.9c0.5-0.2,0.8-0.4,1.1-0.8c0.3-0.4,0.5-0.9,0.5-1.5
				c0-0.8-0.3-1.4-0.8-1.9c-0.5-0.5-1.2-0.8-2.1-0.8H230.8z M243.9,133.3h1.7v-8.9h-1.7V133.3z M263.6,127l1.1,3.2h-2.2L263.6,127z
				 M262.9,124.4l-3.2,8.9h1.8l0.5-1.6h3.2l0.5,1.6h1.8l-3.2-8.9H262.9z M282.6,125.1c-0.6,0.5-0.8,1.2-0.8,2c0,1.4,0.8,2.3,2.4,2.5
				l1.1,0.2c0.4,0,0.6,0.2,0.8,0.3c0.2,0.2,0.3,0.4,0.3,0.7c0,0.7-0.5,1.1-1.6,1.1c-0.9,0-1.7-0.3-2.2-0.8l-1.1,1.1
				c0.8,0.8,1.9,1.2,3.2,1.2c1,0,1.8-0.2,2.4-0.7c0.6-0.5,0.9-1.1,0.9-2c0-0.8-0.2-1.5-0.7-1.9c-0.4-0.3-0.9-0.6-1.7-0.7l-1.1-0.2
				c-0.3,0-0.6-0.2-0.8-0.3c-0.2-0.2-0.3-0.4-0.3-0.7c0-0.3,0.1-0.6,0.4-0.8c0.2-0.2,0.6-0.3,1-0.3c0.8,0,1.4,0.2,1.8,0.6l1.1-1.1
				c-0.7-0.7-1.7-1-2.9-1C283.9,124.3,283.1,124.6,282.6,125.1z M244,123.3h1.7V122H244V123.3z M153.3,123.5h1.4v-1.6h-1.4V123.5z
				 M156.1,123.5h1.4v-1.6h-1.4V123.5z M179.8,123.5h1.4v-1.6h-1.4V123.5z M81.4,124.4v1.6h2.3v7.4h1.7V126h2.3v-1.6H81.4z
				 M282.9,135.9h1.5l0.5-1.8h-1.2L282.9,135.9z M182.6,123.5h1.4v-1.6h-1.4V123.5z"/>
		</defs>
		<clipPath id="SVGID_00000157285179115796959630000004365271974432926340_">
			<use xlink:href="#SVGID_00000129892991216747505970000005540555910403899786_"  style="overflow:visible;"/>
		</clipPath>
		
			<linearGradient id="SVGID_00000098216374453870674710000012436256771088434603_" gradientUnits="userSpaceOnUse" x1="170.1685" y1="900.3921" x2="176.1934" y2="900.3921" gradientTransform="matrix(35.6547 0 0 2.3199 -5985.8711 -1959.8602)">
			<stop  offset="0" style="stop-color:#926328"/>
			<stop  offset="0.55" style="stop-color:#E6B94A"/>
			<stop  offset="1" style="stop-color:#926328"/>
		</linearGradient>
		
			<rect x="81.4" y="121.9" style="clip-path:url(#SVGID_00000157285179115796959630000004365271974432926340_);fill:url(#SVGID_00000098216374453870674710000012436256771088434603_);" width="214.8" height="14"/>
	</g>
	<path class="st1" d="M93.6,60.6c10,0,16.7,3.5,16.7,11.3c0,4-3.3,7.9-5.7,10.1c5.6,2.6,8.6,6.8,8.6,12c0,8.7-5.3,15.1-17.8,15.1
		H81.7V68.4l-1-7.4L93.6,60.6z M91,79.9c5.6,0,7.3,0.4,8.2,0.4c1.2-1.7,2.3-4.4,2.3-7c0-4.3-2.3-5.8-7.6-5.8c-0.9,0-1.9,0.1-3,0.1
		V79.9z M91,102.1h4.5c5.3,0,8.2-3,8.2-7.9c0-4.3-2.7-7.4-10-7.4H91V102.1z"/>
	<polygon class="st1" points="120.6,68.4 119.6,60.9 147.1,60.9 147.1,68.1 129.9,68.1 129.9,80.8 145.1,80.8 143.3,88 129.9,88 
		129.9,101.9 148.1,101.9 146.3,109.1 120.6,109.1 	"/>
	<path class="st1" d="M154.2,97c0,0,5.9,6,13.5,6c4,0,6.8-2.7,6.8-6c0-8.2-20.5-8.6-20.5-22.8c0-7.8,5.6-14.2,14.6-14.2
		c6.2,0,10.9,2,13.4,3.6l-1.8,7.2c0,0-4.8-4-11.8-4c-2.7,0-5.8,2.2-5.8,5.5c0,8.4,20.7,8.3,20.7,23c0,8.2-5.8,14.6-15.1,14.6
		c-9.4,0-14.7-4.9-14.7-4.9L154.2,97z"/>
	<polygon class="st1" points="190,68.4 189,60.9 199.3,60.9 199.3,101.8 217.7,101.8 215.9,109.1 190,109.1 	"/>
	<polygon class="st1" points="224.6,68.4 223.6,60.9 251.2,60.9 251.2,68.1 234,68.1 234,80.8 249.2,80.8 247.4,88 234,88 
		234,101.9 252.1,101.9 250.3,109.1 224.6,109.1 	"/>
	<path class="st1" d="M283.7,109.1l-12-17h-3.7v10.8l0.8,6.2h-10.2V68.4l-1-7.4h14.9c8.6,0,17,4.8,17,15c0,5.3-3.7,11.3-9.1,14
		l14.9,19.1H283.7z M271.4,85.2c4.5,0,8.6-4.2,8.6-9.3c0-5.5-4-8.4-8.6-8.4h-3.2v17.6H271.4z"/>
	<path class="st1" d="M175.4,113.3c0,0-7.5-3-11.9,1.9c-0.3,0.4-0.4,0.9-0.1,1.3l1.2,2.3c0.4,0.7,1.2,0.8,1.8,0.3
		c1.5-1.4,4.4-3.8,7.6-3.8L175.4,113.3z"/>
	<g>
		<defs>
			<path id="SVGID_00000093173612888900911790000008033746385097874334_" d="M324.4,116.3c-5.3,4-10.8,5.7-12.4,6.5l0.1,3.1
				c1.6-0.8,7.9-4.3,12.9-8.6c2.8-2.4,4.8-5.1,6.7-7.6c2.2-3.1,3.5-5.7,4.5-9C336.2,100.7,332.7,110,324.4,116.3 M318.8,90.1
				c-2.5,1.4-3.5,0.9-5.3,2.7c-0.4,0.4-0.7,0.9-1,1.4c-0.8,1-1.4,2.4-1.6,4.8c-0.3,3.3-0.2,22.9-0.1,34.2c0.3,0,0.5,0,0.8,0
				c-0.3-12-0.6-32.6,0.8-34.4c0.2-0.3,0.5-0.5,0.7-0.7c0.8-0.3,1.6-0.7,2.4-1.3c0.3-0.2,0.7-0.5,1-0.9c0.1-0.1,0.2-0.2,0.2-0.2
				C318.2,94,319.4,90.1,318.8,90.1C318.8,90.1,318.8,90.1,318.8,90.1z M306.6,94.4c1,2.2,2.2,3.2,3.6,4.1c0.7,0.5,1.5-3.3,0.3-5.7
				c-1.1-2.3-2.2-2.1-4.2-4.3c0,0-0.1-0.1-0.1-0.1C305.7,88.4,305.7,92.4,306.6,94.4z M320.4,84.9c-2.7,1-3.6,0.3-5.7,1.8
				c-2.2,1.6-3.3,5.2-2.5,5.2c1.6-0.1,3.2-0.4,5.1-1.9C319.1,88.5,321,84.9,320.4,84.9C320.4,84.9,320.4,84.9,320.4,84.9z
				 M307.1,87.9c1,2.2,2.3,3.2,3.7,4c0.8,0.4,1.4-3.3,0.2-5.7c-1.2-2.2-2.3-2.1-4.3-4.2c0,0-0.1-0.1-0.1-0.1
				C306.1,81.9,306.2,85.8,307.1,87.9z M321.4,79.1c-2.7,1-3.6,0.3-5.7,1.8c-2.2,1.6-3.3,5.2-2.5,5.2c1.6-0.1,3.2-0.4,5.1-1.9
				C320.2,82.7,322.1,79.1,321.4,79.1C321.5,79.1,321.4,79.1,321.4,79.1z M300,87.8c0,3.6,0,7.4,1,11.5c1.8,7.4,7.7,16.6,8.7,18.3
				l0.1-4.8c-1-1.7-5.1-6.8-7.4-14c-3.6-11.4-0.3-22.6-0.3-22.6C300.8,80.1,300.1,83.4,300,87.8z M308,81.8c1.2,2.1,2.5,3,4,3.7
				c0.8,0.4,1.2-3.4-0.2-5.7c-1.3-2.2-2.4-1.9-4.6-3.9c0,0-0.1-0.1-0.1-0.1C306.6,75.9,306.9,79.8,308,81.8z M322.7,73
				c-2.7,1-3.6,0.3-5.7,1.8c-2.2,1.6-3.3,5.2-2.5,5.2c1.6-0.1,3.2-0.4,5.1-1.9C321.5,76.6,323.4,72.9,322.7,73
				C322.8,72.9,322.8,73,322.7,73z M309.1,76c1.3,2,2.7,2.9,4.2,3.5c0.8,0.3,1-3.5-0.6-5.7c-1.5-2.1-2.5-1.7-4.8-3.6
				c0,0-0.1,0-0.1,0C307.3,70.1,307.8,74,309.1,76z M330.9,47.2c-1.7,4.4-3.8,10.3-4.7,13.3c-0.9,3-1.7,5.8-2.5,6.9
				c-2.4,0.7-3.3,0.2-5.3,1.5c-2.2,1.5-3.4,5.2-2.5,5.2c1.6-0.1,3.2-0.4,5.1-1.8c1.2-0.9,2.4-2.7,3-3.9c0.7-1.4,1.9-5.6,3.4-10.6
				c1.5-5,5.4-14.9,5.9-16.3c0,0,0,0,0,0C333.3,41.3,332.5,42.9,330.9,47.2z M308.2,36.6c0,1.6,0.6,12.1,0.5,17.4
				c-0.1,5.2-0.3,9.5-0.1,11.1v0c0.2,1.3,0.8,3.4,1.6,4.6c1.4,2,2.8,2.8,4.3,3.3c0.8,0.3,0.9-3.5-0.8-5.7c-1.5-1.9-2.5-1.7-4.5-3.1
				c-0.4-1.3-0.3-4.2-0.2-7.3c0.1-3.1,0-9.4-0.3-14.1C308.5,38.2,308.2,36.6,308.2,36.6C308.2,36.6,308.2,36.6,308.2,36.6z
				 M331.5,41.2c-1.6,4.4-3.6,10.3-4.5,13.3c-0.8,3-1.6,5.8-2.4,6.9c-2.4,0.8-3.3,0.3-5.2,1.6c-2.2,1.6-3.3,5.2-2.5,5.2
				c1.6-0.1,3.2-0.4,5.1-1.9c1.2-0.9,2.4-2.7,2.9-3.9c0.7-1.4,1.8-5.6,3.3-10.6c1.5-5,5.2-15,5.7-16.4c0,0,0,0,0,0
				C333.8,35.4,333.1,36.9,331.5,41.2z M312.1,30.9c-0.1,1.5-0.3,12.2-0.8,17.4c-0.5,5.2-1,9.5-0.9,11.1c0.1,1.3,0.5,3.5,1.3,4.8
				c1.2,2.1,2.5,3,4,3.6c0.8,0.4,1.1-3.5-0.4-5.7c-1.3-2-2.3-1.9-4.3-3.5c-0.3-1.3,0-4.2,0.4-7.3c0.3-3.1,0.7-9.3,0.8-14.1
				C312.2,32.6,312.1,30.9,312.1,30.9C312.1,30.9,312.1,30.9,312.1,30.9z M332.2,35.4c-1.6,4.4-3.7,10.3-4.5,13.3
				c-0.8,3-1.6,5.8-2.4,6.9c-2.4,0.8-3.3,0.2-5.2,1.6c-2.2,1.6-3.3,5.2-2.5,5.2c1.6-0.1,3.2-0.4,5.1-1.9c1.2-0.9,2.4-2.7,2.9-3.9
				c0.7-1.4,1.8-5.6,3.3-10.6c1.5-5,5.2-15,5.7-16.4c0,0,0,0,0,0C334.5,29.5,333.8,31.1,332.2,35.4z M315.5,24.6
				c-0.2,1.5-1.2,12.1-2.1,17.3c-0.9,5.1-1.7,9.4-1.7,11c0,1.3,0.2,3.5,0.9,4.8c1.1,2.2,2.3,3.1,3.7,3.9c0.8,0.4,1.4-3.4,0.1-5.7
				c-1.2-2.1-2.2-2-4-3.8c-0.2-1.3,0.3-4.2,0.9-7.2c0.6-3.1,1.4-9.3,1.8-14C315.6,26.3,315.6,24.6,315.5,24.6
				C315.5,24.6,315.5,24.6,315.5,24.6z M331.9,27.7c-1.6,4.4-3.5,10.4-4.2,13.4c-0.7,2.9-1.5,5.5-2.1,6.8c-2.3,1.5-3.3,1.2-4.9,3
				c-1.8,2.1-1.9,5.9-1.1,5.7c1.6-0.5,3-1.2,4.4-3.1c1-1.3,1.7-3.5,1.9-4.8c0.7-1.7,1.7-5.7,2.9-10.3c1.4-5.1,4.9-15.1,5.4-16.5
				c0,0,0,0,0,0C334.2,21.8,333.4,23.4,331.9,27.7z M320.1,18.1c-0.3,1.5-1.8,12-2.9,17.1c-1,4.7-2,8.7-2.2,10.5
				c-0.4,1.2-0.8,3.5-0.6,5.1c0.4,2.4,1.3,3.7,2.5,4.8c0.6,0.6,2.3-2.8,1.7-5.5c-0.5-2.4-1.6-2.6-2.9-5c0-1.4,0.6-4.1,1.2-7
				c0.7-3.1,1.8-9.2,2.5-13.9C320.1,19.8,320.2,18.1,320.1,18.1C320.1,18.1,320.1,18.1,320.1,18.1z M329.5,20.9
				c-1.2,4.5-2.6,10.6-3.1,13.7c-0.5,2.9-1,5.6-1.6,6.9c-2.1,1.7-3.2,1.4-4.6,3.4c-1.6,2.2-1.4,6.1-0.6,5.7c1.5-0.6,2.9-1.4,4.2-3.5
				c0.8-1.3,1.4-3.6,1.5-4.9c0.5-1.8,1.2-5.8,2.1-10.5c1-5.1,3.7-15.4,4-16.9c0,0,0,0,0,0C331.3,14.8,330.7,16.4,329.5,20.9z
				 M328.3,13c-0.6,1.4-4.1,10.8-6.2,15.4c-1.9,4.2-3.7,7.7-4.2,9.3c-0.6,1.1-1.5,3.1-1.6,4.6c-0.1,2.3,0.5,3.7,1.3,5
				c0.4,0.7,2.7-2.2,2.7-4.8c0-2.4-1-2.7-1.7-5.2c0.3-1.3,1.4-3.7,2.6-6.2c1.3-2.7,3.6-8.2,5.1-12.4C327.9,14.5,328.3,12.9,328.3,13
				C328.3,12.9,328.3,13,328.3,13z"/>
		</defs>
		<clipPath id="SVGID_00000070106709079837724180000013209089513187671453_">
			<use xlink:href="#SVGID_00000093173612888900911790000008033746385097874334_"  style="overflow:visible;"/>
		</clipPath>
		
			<linearGradient id="SVGID_00000018215279189040913710000005537603982621296566_" gradientUnits="userSpaceOnUse" x1="171.2642" y1="1285.2517" x2="177.2893" y2="1285.2517" gradientTransform="matrix(28.7294 0 0 19.982 -4712.7368 -25608.7324)">
			<stop  offset="0" style="stop-color:#926328"/>
			<stop  offset="0.55" style="stop-color:#E6B94A"/>
			<stop  offset="0.76" style="stop-color:#926328"/>
			<stop  offset="1" style="stop-color:#926328"/>
		</linearGradient>
		
			<rect x="298.8" y="12.9" style="clip-path:url(#SVGID_00000070106709079837724180000013209089513187671453_);fill:url(#SVGID_00000018215279189040913710000005537603982621296566_);" width="37.4" height="120.4"/>
	</g>
	<path class="st1" d="M339.9,61.9l6.2-1.5l14.8,40.3l4.1,9h-10.5l-4.1-11.2h-16l-4.3,11.2h-8.7L339.9,61.9z M336.6,91h11.6l-5-14
		l-0.7-2.8l-0.7,2.9L336.6,91z"/>
	<path class="st1" d="M378,100.2c-0.9,0.9-1.5,2-1.5,2.8c0,5.4,24.5-3.2,24.5,11.6c0,8.5-9.6,12.6-18.6,12.6
		c-13.2,0-15.8-7.7-15.8-7.7l5.2-4.8c0,0,2.3,6.1,11.4,6.1c4.2,0,9.3-1.1,9.3-4.6c0-7-23.5,1.5-23.5-10.3c0-2.9,2.2-5.7,4.5-8
		c-3.2-2.1-5.9-6.5-5.9-11.1c0-8.5,6.6-14.8,15.8-14.8c3,0,6.4,1.4,7.1,2l1.3-0.9h10.6l-1.5,5.6h-5.1c1.7,2.2,2.5,4.8,2.5,7.6
		c0,8.6-6.8,14.6-15.6,14.6C379.5,100.9,378,100.2,378,100.2 M382.9,94.6c3.3,0,6-3.3,6-8.1c0-4.9-2.7-8.2-6-8.2
		c-3.3,0-6.2,3.3-6.2,8.2C376.7,91.4,379.7,94.6,382.9,94.6z"/>
	<path class="st1" d="M430.2,82.7c0,0-2.1-2-4.8-2c-3.8,0-8.3,4.6-8.3,10.3v12.5l0.8,6.2h-9.8V80.6l-1-7.3l10-1.1v6.6
		c0,0,3.5-6.7,9.8-6.7c2.2,0,4.3,0.9,6,2.7L430.2,82.7z"/>
	<path class="st1" d="M451.4,110.6c-11,0-16.7-9.6-16.7-18.7c0-10.8,6.9-19.8,19.2-19.8c9.5,0,16.6,5.7,16.6,18.5
		C470.5,101.3,463.5,110.6,451.4,110.6 M452.5,104.2c5.2,0,8.3-5.6,8.3-12.9c0-7.2-3.1-12.8-8.3-12.8c-5.2,0-8.3,5.6-8.3,12.8
		C444.2,98.5,447.3,104.2,452.5,104.2z"/>
</g>
</svg>
