<?xml version="1.0" encoding="utf-8"?>
<!-- Generator: Adobe Illustrator 13.0.0, SVG Export Plug-In . SVG Version: 6.00 Build 14948)  -->
<!DOCTYPE svg PUBLIC "-//W3C//DTD SVG 1.1//EN" "http://www.w3.org/Graphics/SVG/1.1/DTD/svg11.dtd">
<svg version="1.1" id="Layer_1" xmlns="http://www.w3.org/2000/svg" xmlns:xlink="http://www.w3.org/1999/xlink" x="0px" y="0px"
	 width="118px" height="66.381px" viewBox="0 0 118 66.381" enable-background="new 0 0 118 66.381" xml:space="preserve">
<g id="g10" transform="matrix(1.3333333,0,0,-1.3333333,0,281.33333)">
	<g id="g12" transform="scale(0.1)">
		<path id="path14" fill="#4AA13F" d="M349.618,1882.129c-32.64-0.905-59.528-3.79-80.662-8.639
			c-21.112-4.955-32.04-10.975-32.75-18.043c0.916-7.581,13.4-13.894,37.452-18.948c24.056-4.951,54.229-7.537,90.52-7.734
			c24.148,0,45.934,1.26,65.336,3.787c19.417,2.424,34.775,5.662,46.099,9.697c-0.71-0.088-1.37-0.249-1.978-0.447
			c-23.95-5.464-46.842-4.504-68.679,2.871C383.123,1852.166,364.677,1864.646,349.618,1882.129"/>
		<path id="path16" fill="#4AA13F" d="M327.638,2103.178c17.076-7.672,35.673-18.193,55.789-31.534
			c6.061,3.439,12.488,6.365,19.255,8.8C375.996,2090.749,350.98,2098.34,327.638,2103.178"/>
		<path id="path18" fill="#4AA13F" d="M566.719,1986.902c1.626-8.09,2.424-16.121,2.424-24.122
			c20.625-17.878,36.702-35.764,48.223-53.661c11.521-17.798,11.426-32.197-0.3-43.217c0.601-0.092,1.157,2.783,1.67,8.646
			c0.403,5.958-2.681,15.516-9.25,28.66c-6.475,13.129-20.017,30.516-40.635,52.148c-1.216-18.486-6.123-35.673-14.707-51.548
			c15.769-26.686,20.017-45.93,12.737-57.766c-0.498-0.894-1.121-1.663-1.816-2.271c38.511-2.93,63.12,4.702,73.828,22.896
			c6.863,14.355,3.743,32.139-9.39,53.368C616.355,1941.261,595.43,1963.545,566.719,1986.902"/>
		<path id="path20" fill="#FFFFFF" d="M568.85,1955.357c20.515-21.632,34.065-39.02,40.635-52.148
			c6.57-13.143,9.595-22.635,9.089-28.502c-0.505-5.966-1.003-8.895-1.509-8.804c11.726,11.019,11.821,25.419,0.3,43.217
			c-11.521,17.897-27.642,35.782-48.369,53.661C569.099,1960.26,569.055,1957.781,568.85,1955.357"/>
		<path id="path22" fill="#FFFFFF" d="M543.223,2038.893c0.308-0.505,0.718-1.007,1.223-1.512
			C544.036,2037.886,543.633,2038.388,543.223,2038.893"/>
		<path id="path24" fill="#FFFFFF" d="M484.71,1893.193c-2.542,3.834-6.013,6.182-10.466,6.98c-4.358,0.71-8.35,2.12-11.982,4.241
			c-3.53,2.538-6.914,5.098-10.151,7.738c-1.509,0.912-2.622,2.219-3.333,3.937c0.103,0.809,0.249,1.772,0.447,2.886
			c-1.011,1.014-1.86,2.267-2.571,3.79c-0.11,2.424,0.557,4.545,1.963,6.372c1.421,1.805,1.868,3.992,1.37,6.508
			c-1.011,1.915-2.93,3.541-5.757,4.86c-2.933,1.318-3.9,0.359-2.886-2.875c-3.34-1.219-6.973-0.509-10.92,2.12
			c-4.036,2.717-7.734,4.285-11.06,4.698c-3.633-0.311-7.174-0.663-10.613-1.066c-4.863-0.205-9.701-0.15-14.561,0.154
			c-7.174,1.615-12.781,5.259-16.827,10.909c-4.039,5.771-8.99,10.411-14.854,13.949c1.41-3.135,2.717-6.262,3.944-9.404
			c3.036-0.597,4.889-2.417,5.599-5.449c-3.633,2.018-6.31,4.896-8.031,8.639c-2.834,3.431-5.764,6.929-8.796,10.455
			c-5.046,6.888-6.409,14.359-4.083,22.452c1.102,4.039,1.509,7.976,1.205,11.821c-0.908,1.014-1.769,2.673-2.571,5.006
			c0.293,1.816,0.758,3.633,1.366,5.449c0.498,4.86-1.165,8.141-5.017,9.858c-1.809-0.103-3.926-1.106-6.361-3.032
			c-1.311-1.919-3.025-3.333-5.145-4.241c-0.205,0.802,0.044,1.915,0.754,3.336c-6.27-11.323-10.679-23.401-13.195-36.248
			c16.985-18.486,36.339-37.035,58.063-55.635c32.344-27.286,62.827-48.97,91.425-65.032c-26.788,9.185-54.423,21.116-82.936,35.768
			c-24.349,12.74-46.736,26.082-67.159,40.034c0.498-2.739,1.062-5.57,1.666-8.492c5.054-19.816,13.85-36.995,26.382-51.552
			c15.168-17.483,33.607-29.963,55.338-37.456c21.837-7.375,44.729-8.335,68.672-2.871c0.71,0.198,1.37,0.403,1.985,0.608
			c8.181,2.014,15.916,4.849,23.188,8.489c-6.255,1.919-9.653,7.983-10.159,18.193
			C488.145,1879.298,486.826,1887.329,484.71,1893.193"/>
		<path id="path26" fill="#FFFFFF" d="M450.601,1970.829c-1.23-1.721-2.739-2.787-4.556-3.19c-0.103,1.714,0.652,3.281,2.278,4.702
			c1.611,1.41,2.622,1.714,3.032,0.912C451.45,1972.547,451.201,1971.741,450.601,1970.829 M437.71,1967.797
			c-5.164-0.71-10.668-1.073-16.531-1.073c0.414,2.739,3.087,4.153,8.038,4.252c4.841,0,8.438-0.146,10.77-0.461
			C440.383,1968.8,439.629,1967.889,437.71,1967.797 M431.338,2057.094c-2.922-0.201-5.618,0.758-8.031,2.878
			c-2.424,2.018-4.812,3.541-7.13,4.545c-5.859,1.318-11.884,1.216-18.04-0.297c-0.71,3.237,1.113,6.163,5.457,8.789
			c4.241,2.626,7.727,3.688,10.466,3.19l-1.069,1.963c2.12-2.728,5.109-4.193,8.943-4.398c3.743-0.194,6.573-1.41,8.489-3.633
			c1.117-2.626,1.985-5.31,2.585-8.038C435.333,2059.159,434.766,2057.493,431.338,2057.094 M412.537,2050.418
			c-2.827-0.802-6.064-1.216-9.701-1.216c-0.505,3.032-2.128,4.611-4.86,4.702c-2.717,0.11-4.296,1.626-4.702,4.545l5.156-0.439
			c3.541-2.743,7.896-3.351,13.048-1.827C410.757,2053.747,411.12,2051.828,412.537,2050.418 M443.778,2037.981
			c0.092-0.71,0.044-1.403-0.161-2.113c-2.219-0.718-4.395-1.472-6.526-2.274c-1.512,1.915-1.604,3.743-0.293,5.457l1.205-0.308
			C439.83,2038.249,441.749,2037.981,443.778,2037.981 M568.997,1962.78c0,8.002-0.754,16.033-2.278,24.122
			c-0.403,1.805-0.798,3.633-1.208,5.446c-2.029,8.496-4.856,16.534-8.489,24.111c-0.205,0-0.359-0.051-0.454-0.146
			c1.208-4.259,0.498-7.782-2.117-10.613c-3.23,0-6.577,1.165-10.005,3.475c-6.475,4.058-11.733,9.36-15.769,15.923
			c-2.534,2.831-4.409,6.116-5.61,9.858c-1.626,3.226-3.589,6.057-5.918,8.492c-1.619,2.223-3.691,5.413-6.211,9.544
			c-2.527,4.149-2.988,6.877-1.362,8.196c-0.505,2.212-1.025,4.446-1.523,6.669c1.816-0.205,3.237-1.014,4.241-2.428
			c1.318-0.304,2.534-0.45,3.64-0.45c-5.647,4.039-11.624,7.581-17.886,10.613c-0.916-0.103-1.714,0-2.424,0.297
			c0.71-3.534,2.527-5.958,5.457-7.266c2.922-1.322,5.098-3.552,6.511-6.676c0.916-3.746-0.205-5.006-3.325-3.79
			c-3.23,1.208-5.815,2.369-7.742,3.486c-1.816,0.406-3.428,0.864-4.849,1.362c-0.498,2.018-0.454,3.431,0.146,4.252
			c-1.311,2.516-3.376,3.677-6.211,3.475c-1.919,2.325-4.402,3.285-7.419,2.886c-2.527-0.912-5.2-1.615-8.035-2.12
			c-2.124,1.622-4.197,3.08-6.226,4.391c3.442,0,7.024,0.403,10.767,1.223c-1.824,2.622-4.446,4.391-7.888,5.303
			c-3.127-1.512-5.757-1.469-7.874,0.146c-3.032-0.699-6.064-1.058-9.104-1.058c-0.19,0.201-1.311,0.857-3.336,1.963
			c-2.018,1.227-3.585,1.985-4.702,2.278c-2.827-0.092-5.347,0.406-7.577,1.52c-6.365-0.498-12.737-1.52-19.105-3.032
			c-4.244-1.117-8.394-2.369-12.429-3.787c-6.669-2.325-13.085-5.204-19.255-8.643c-19.303-11.027-34.563-25.836-45.776-44.432
			c2.01,2.831,3.677,4.904,4.995,6.222c2.831,2.428,5.662,4.794,8.496,7.126c1.205,2.622,2.922,4.651,5.153,6.072
			c1.307-0.619,2.977-1.322,4.995-2.131c2.937,0.201,5.72,0.663,8.339,1.37c4.856-1.022,8.895-0.817,12.122,0.601
			c-7.976,2.63-7.625,4.446,1.073,5.46c4.036,0,7.474-1.216,10.309-3.64c-1.725-1.82-3.644-4.75-5.764-8.789
			c-2.021-4.039-1.56-6.823,1.362-8.342c3.146,0.403,6.621,0.652,10.455,0.754c2.637-2.424,5.413-4.094,8.346-4.999
			c-1.102,5.156-2.278,10.06-3.486,14.711c0.509,2.725,1.674,3.787,3.486,3.179c1.827-0.71,3.743-1.469,5.764-2.281
			c0.498,4.446,2.831,5.673,6.98,3.644c1.714-0.201,4.131-0.403,7.273-0.608c3.032-0.19,5.2-0.802,6.511-1.816
			c1.428-2.018,0.663-4.6-2.267-7.727c-2.937-3.131-5.204-5.662-6.826-7.577c2.424,0.201,4.548,0,6.372-0.619
			c1.626,0.114,3.428,0.619,5.46,1.512c-0.71-3.633-3.032-5.394-6.98-5.299c-1.718-4.446-3.336-8.687-4.852-12.737
			c-1.615-3.53-2.212-7.321-1.816-11.367c-1.622-4.351-3.032-8.694-4.248-13.048c1.315-3.838,2.985-7.826,5.006-11.968
			c-0.802-0.406-1.626-0.608-2.428-0.608c-1.915,3.234-4.589,4.951-8.027,5.153c-1.516,0.406-3.45,0.553-5.771,0.461
			c-2.223-0.11-3.387-1.318-3.479-3.651c-2.626-1.095-4.702-1.556-6.226-1.355c-1.399,0.103-2.717-1.523-3.933-4.849
			c-1.615-4.142-1.479-8.448,0.461-12.891c2.717-4.252,6.508-6.119,11.367-5.607c1.41,1.003,2.472,2.721,3.171,5.145
			c0.82,2.322,1.78,3.845,2.893,4.556c2.216,0.601,3.435-0.454,3.633-3.19c0.3-2.721,0.963-4.841,1.967-6.365
			c1.919-1.421,3.743-1.666,5.468-0.754c1.718,1.003,3.541,1.208,5.457,0.608c1.718-3.549,4.087-6.779,7.119-9.708
			c2.534,0,4.296,0.809,5.303,2.432c2.329,0.297,4.058,0.406,5.164,0.297c0.901,0.11,1.86,0.201,2.886,0.304
			c-1.626,6.163-0.051,9.554,4.702,10.151c4.636,0.71,8.936,1.322,12.883,1.827c3.127,2.527,6.716,3.992,10.759,4.398
			c4.05-1.414,8.086-2.571,12.122-3.486c4.255,1.615,8.65,2.073,13.198,1.362c2.227-1.205,3.948-2.23,5.149-3.032
			c1.121-0.912,3.193-1.117,6.218-0.608c4.761,1.318,9.148,2.168,13.191,2.574c4.146,0.414,6.973-2.01,8.481-7.277
			c2.944-12.631,1.377-24.653-4.68-36.079c-2.432-5.658-4.658-11.367-6.687-17.131c-1.816-6.068-5.303-10.917-10.452-14.561
			c2.424-2.208,1.97-4.6-1.37-7.115c-3.333-2.629-5.815-4.907-7.419-6.823c-3.237-5.863-3.845-11.224-1.824-16.073
			c22.236,12.125,39.214,29.008,50.94,50.632c8.496,15.967,13.396,33.153,14.707,51.548
			C568.953,1957.781,568.997,1960.26,568.997,1962.78"/>
		<path id="path28" fill="#005494" d="M505.173,1869.25c1.611,1.915,4.087,4.193,7.434,6.823c3.223,2.516,3.677,4.907,1.355,7.115
			c5.156,3.644,8.65,8.492,10.466,14.561c1.919,5.764,4.138,11.517,6.665,17.278c6.064,11.323,7.639,23.302,4.702,35.933
			c-1.516,5.266-4.343,7.69-8.496,7.277c-4.131-0.406-8.533-1.208-13.184-2.417c-3.032-0.505-5.105-0.352-6.211,0.45
			c-1.208,0.802-2.93,1.827-5.156,3.032c-4.658,0.71-9.053,0.308-13.191-1.205c-4.043,0.802-8.079,1.915-12.136,3.329
			c-4.138-0.297-7.734-1.769-10.759-4.398c-3.94-0.505-8.284-1.117-13.03-1.827c-4.658-0.597-6.226-3.988-4.702-10.151
			c-1.025-0.103-1.926-0.194-2.739-0.304c-1.106,0.11-2.831,0-5.153-0.297c-1.007-1.622-2.831-2.432-5.46-2.432
			c-2.93,2.93-5.31,6.16-7.119,9.708c-1.824,0.601-3.64,0.396-5.457-0.608c-1.725-0.912-3.486-0.667-5.31,0.754
			c-1.007,1.523-1.67,3.644-1.963,6.365c-0.315,2.736-1.578,3.79-3.794,3.19c-1.018-0.71-1.934-2.234-2.736-4.556
			c-0.802-2.424-1.919-4.142-3.329-5.145c-4.86-0.513-8.65,1.355-11.367,5.607c-1.827,4.556-1.941,8.84-0.315,12.891
			c1.117,3.325,2.435,4.951,3.948,4.849c1.41-0.201,3.483,0.26,6.222,1.355c0,2.333,1.154,3.541,3.475,3.651
			c2.325,0.205,4.241,0.092,5.764-0.304c3.34-0.315,5.966-2.076,7.881-5.31c0.916,0.11,1.761,0.304,2.582,0.608
			c-2.025,4.142-3.743,8.13-5.16,11.968c1.315,4.354,2.736,8.698,4.248,13.048c-0.304,4.047,0.363,7.837,1.963,11.367
			c1.432,4.05,3.036,8.291,4.86,12.737c3.948-0.095,6.273,1.666,6.984,5.299c-2.029-0.894-3.856-1.399-5.46-1.512
			c-1.827,0.619-3.948,0.824-6.383,0.619c1.626,1.915,3.904,4.446,6.826,7.577c2.941,3.127,3.64,5.709,2.12,7.727
			c-1.311,1.014-3.475,1.626-6.511,1.816c-3.032,0.205-5.413,0.406-7.137,0.608c-4.131,2.029-6.508,0.802-7.115-3.644
			c-2.021,0.813-3.937,1.571-5.764,2.281c-1.813,0.608-2.933-0.454-3.329-3.179c1.208-4.651,2.322-9.554,3.329-14.711
			c-2.831,0.905-5.607,2.574-8.346,4.999c-3.721-0.103-7.218-0.352-10.455-0.754c-2.922,1.52-3.329,4.303-1.205,8.342
			c2.117,4.039,3.992,6.969,5.607,8.789c-2.732,2.424-6.116,3.64-10.155,3.64c-8.807-1.014-9.144-2.831-1.069-5.46
			c-3.234-1.417-7.321-1.622-12.279-0.601c-2.618-0.707-5.358-1.168-8.188-1.37c-2.124,0.809-3.79,1.512-4.999,2.131
			c-2.322-1.322-4.047-3.34-5.153-6.072c-2.933-2.333-5.812-4.655-8.643-6.969c-1.318-1.428-2.93-3.549-4.86-6.379
			c-0.901-1.403-1.659-2.721-2.274-3.937c-0.699-1.41-1.007-2.574-0.894-3.486c2.12,0.912,3.878,2.325,5.299,4.244
			c2.325,2.025,4.398,3.032,6.207,3.032c3.853-1.718,5.515-4.999,5.017-9.858c-0.516-1.714-0.963-3.53-1.366-5.449
			c0.802-2.223,1.714-3.9,2.721-5.006c0.201-3.845-0.253-7.782-1.355-11.821c-2.325-7.983-0.916-15.472,4.237-22.452
			c2.933-3.428,5.808-6.914,8.643-10.455c1.721-3.743,4.398-6.563,8.031-8.492c-0.601,3.036-2.424,4.805-5.46,5.303
			c-1.307,3.237-2.618,6.372-3.929,9.404c5.867-3.538,10.756-8.134,14.7-13.792c4.047-5.764,9.653-9.397,16.827-10.909
			c4.86-0.414,9.697-0.461,14.561-0.157c3.435,0.297,6.976,0.656,10.613,1.051c3.325-0.494,7.024-2.073,11.06-4.68
			c4.05-2.743,7.69-3.45,10.92-2.142c-0.912,3.142,0.055,4.058,2.886,2.736c2.827-1.315,4.746-2.875,5.757-4.698
			c0.615-2.527,0.198-4.702-1.208-6.511c-1.523-1.824-2.234-3.944-2.124-6.379c0.798-1.512,1.714-2.831,2.717-3.937
			c-0.293-1.113-0.491-2.018-0.593-2.728c0.798-1.714,1.912-3.083,3.333-4.094c3.237-2.64,6.621-5.2,10.151-7.738
			c3.633-2.12,7.69-3.53,12.129-4.241c4.46-0.707,7.939-2.988,10.466-6.823c2.014-5.863,3.289-13.949,3.787-24.258
			c0.505-10.21,3.904-16.274,10.159-18.193c1.721-0.198,3.743,0.044,6.072,0.754c-0.608,0.41-1.121,0.916-1.523,1.523
			C501.328,1858.025,501.951,1863.387,505.173,1869.25"/>
		<path id="path30" fill="#005494" d="M508.052,2067.707c0.498-2.117,0.959-4.307,1.362-6.519c-1.509-1.318-1.003-4.094,1.523-8.335
			c2.52-4.149,4.592-7.284,6.218-9.404c2.322-2.527,4.285-5.358,5.911-8.492c1.201-3.743,3.076-7.028,5.61-9.858
			c4.036-6.665,9.294-11.975,15.769-15.923c3.428-2.424,6.775-3.633,10.005-3.633c2.615,2.922,3.325,6.511,2.117,10.77
			c0.095,0.095,0.249,0.146,0.454,0.146c1.011,0.205,1.67-0.348,1.985-1.666v2.12c1.399,2.424,0.132,5.614-3.801,9.551
			c-3.94,3.937-7.537,7.577-10.759,10.917c-0.505,0.505-0.916,1.007-1.223,1.512c-1.099,1.414-1.406,2.582-0.901,3.486
			c-4.746,5.365-10.056,10.474-15.923,15.315c-2.629,2.629-5.413,4.904-8.335,6.823c-0.82,0.304-1.523,0.461-2.131,0.461
			c-1.106-0.103-2.322,0.044-3.64,0.45C511.289,2066.843,509.868,2067.597,508.052,2067.707"/>
		<path id="path32" fill="#005494" d="M430.423,2070.131c-1.915,2.223-4.746,3.439-8.489,3.633c-3.834,0.11-6.823,1.567-8.943,4.398
			l0.912-1.963c-2.629,0.498-6.112-0.564-10.455-3.19c-4.263-2.626-6.021-5.552-5.31-8.789c6.156,1.512,12.18,1.615,18.04,0.297
			c2.318-1.003,4.706-2.571,7.13-4.702c2.413-2.01,5.109-2.922,8.031-2.721c3.428,0.399,3.995,2.065,1.67,4.999
			C432.407,2064.821,431.539,2067.505,430.423,2070.131"/>
		<path id="path34" fill="#005494" d="M441.793,2085.743c1.117-0.293,2.684-1.051,4.702-2.278c2.025-1.208,3.146-1.871,3.336-1.963
			c2.937,0,5.969,0.359,9.104,1.058c2.117-1.721,4.746-1.816,7.874-0.304c3.442-0.802,6.021-2.523,7.734-5.145
			c-3.633-0.912-7.17-1.318-10.613-1.223c2.029-1.311,4.043-2.769,6.064-4.391c2.93,0.396,5.669,1.062,8.196,1.963
			c3.018,0.414,5.5-0.498,7.419-2.728c2.739,0.11,4.812-1.058,6.211-3.475c-0.601-0.82-0.645-2.278-0.146-4.409
			c1.311-0.498,2.937-0.901,4.849-1.205c1.926-1.208,4.446-2.38,7.588-3.486c3.23-1.216,4.395,0.048,3.479,3.79
			c-1.414,3.032-3.589,5.2-6.511,6.519c-3.032,1.307-4.856,3.787-5.457,7.423c0.71-0.297,1.509-0.454,2.424-0.454
			c0.71,0.099,1.362,0.099,1.963,0c-3.926,3.135-8.628,5.153-14.099,6.068c-5.142,2.322-10.554,4.149-16.223,5.457
			c-9.5,2.227-19.087,3.439-28.806,3.644c-1.099,0.092-2.717,0.092-4.841,0c-2.12-0.114-2.783-1.227-1.981-3.34
			C436.392,2086.047,438.966,2085.541,441.793,2085.743"/>
		<path id="path36" fill="#005494" d="M421.179,1966.724c5.962,0,11.525,0.363,16.67,1.073c1.934,0.092,2.692,1.003,2.278,2.717
			c-2.325,0.315-5.958,0.461-10.909,0.461C424.267,1970.877,421.593,1969.463,421.179,1966.724"/>
		<path id="path38" fill="#005494" d="M446.045,1967.64c1.919,0.403,3.486,1.469,4.695,3.19c0.615,0.802,0.864,1.604,0.754,2.424
			c-0.396,0.802-1.406,0.498-3.032-0.912C446.858,1970.921,446.045,1969.353,446.045,1967.64"/>
		<path id="path40" fill="#005494" d="M411.629,2056.182c-5.156-1.52-9.503-0.916-13.041,1.827l-5.153,0.439
			c0.403-2.919,1.963-4.435,4.702-4.545c2.728-0.092,4.351-1.67,4.849-4.702c3.64,0,6.877,0.414,9.708,1.216
			C411.171,2051.828,410.823,2053.747,411.629,2056.182"/>
		<path id="path42" fill="#005494" d="M437.091,2033.594c2.131,0.802,4.307,1.556,6.526,2.274c0.205,0.71,0.253,1.403,0.161,2.113
			c-2.029,0-3.948,0.267-5.775,0.762l-1.205,0.308C435.487,2037.337,435.579,2035.509,437.091,2033.594"/>
		<path id="path44" fill="#11B3E8" d="M230.907,2089.533c-1.219-13.334,4.647-29.919,17.582-49.728
			c12.847-19.907,26.038-37.745,39.573-53.522c13.645-15.656,21.024-23.947,22.141-24.858
			c-35.38,30.923-58.422,55.847-69.137,74.747c-10.723,18.801-15.359,32.45-13.956,40.939
			C228.538,2085.585,229.798,2089.734,230.907,2089.533 M471.665,1866.371c-28.707,16.062-59.172,37.745-91.425,65.032
			c-21.724,18.6-41.133,37.148-58.217,55.635c-25.173,27.495-43.506,52.262-55.031,74.29c-11.525,22.046-14.051,38.218-7.581,48.519
			c0.092,0,0.194,0.062,0.297,0.154c-22.035-2.23-36.584-9.745-43.656-22.588c-7.987-17.19-2.234-38.866,17.278-65.043
			c19.409-26.177,48.82-52.859,88.239-80.05c20.424-14.052,42.81-27.44,67.159-40.181
			C417.243,1887.487,444.877,1875.556,471.665,1866.371"/>
		<path id="path46" fill="#FFFFFF" d="M230.907,2089.69c-1.018,0.103-2.278-4.039-3.798-12.44
			c-1.403-8.481,3.234-22.185,13.956-41.078c10.715-18.809,33.757-43.722,69.137-74.747c-1.117,0.912-8.448,9.247-21.984,25.012
			c-13.645,15.667-26.884,33.461-39.73,53.368C235.653,2059.723,229.798,2076.346,230.907,2089.69"/>
		<path id="path48" fill="#005596" d="M93.787,1726.57H28.766v20.728h65.021V1726.57z M102.935,1773.079h-82.39v-92.827H0v103.044
			c0,1.421,0.256,2.769,0.776,4.021c0.535,1.252,1.263,2.358,2.175,3.318c0.93,0.959,2.029,1.699,3.281,2.212
			c1.274,0.535,2.655,0.813,4.131,0.813h92.571V1773.079z M212.787,1726.57h-64.948v20.728h64.948V1726.57z M222.012,1680.252
			h-74.172c-2.831,0-5.936,0.491-9.331,1.472c-3.376,1.003-6.489,2.659-9.368,4.944c-2.875,2.307-5.273,5.288-7.192,8.958
			c-1.919,3.662-2.878,8.159-2.878,13.499v74.172c0,1.421,0.264,2.769,0.776,4.021c0.535,1.252,1.263,2.358,2.175,3.318
			c0.934,0.959,2.029,1.699,3.285,2.212c1.271,0.535,2.655,0.813,4.127,0.813h92.578v-20.581h-82.397v-63.955
			c0-2.71,0.71-4.775,2.139-6.196c1.421-1.428,3.516-2.131,6.27-2.131h73.989V1680.252z"/>
		<path id="path50" fill="#005596" d="M355.25,1755.523c0-4.702-0.579-8.884-1.732-12.576c-1.161-3.684-2.732-6.951-4.72-9.778
			c-1.974-2.798-4.241-5.215-6.823-7.222c-2.582-1.992-5.292-3.647-8.115-4.944c-2.831-1.282-5.68-2.212-8.555-2.805
			c-2.86-0.571-5.552-0.85-8.079-0.85l42.931-37.097h-31.791l-42.858,37.097h-14.791v20.544h46.509
			c2.582,0.22,4.944,0.754,7.083,1.626c2.139,0.857,3.981,2.029,5.53,3.501c1.549,1.479,2.739,3.252,3.578,5.347
			c0.861,2.087,1.293,4.475,1.293,7.156v12.986c0,1.15-0.146,2.029-0.443,2.615c-0.297,0.608-0.663,1.069-1.106,1.37
			c-0.443,0.293-0.923,0.461-1.439,0.513c-0.498,0.044-0.948,0.073-1.366,0.073h-67.859v-92.827h-20.544v103.044
			c0,1.421,0.256,2.769,0.773,4.021c0.535,1.252,1.267,2.358,2.179,3.318c0.93,0.959,2.029,1.699,3.281,2.212
			c1.274,0.535,2.655,0.813,4.131,0.813h78.04c4.574,0,8.448-0.842,11.62-2.505c3.171-1.685,5.735-3.765,7.705-6.27
			c1.967-2.49,3.376-5.186,4.244-8.079c0.883-2.908,1.326-5.625,1.326-8.152V1755.523z"/>
		<path id="path52" fill="#005596" d="M473.042,1787.464c0.813-1.846,1.047-3.794,0.74-5.83c-0.322-2.021-1.172-3.743-2.549-5.164
			l-67.822-75.674h69.485v-20.544h-92.684c-1.992,0-3.853,0.557-5.566,1.692c-1.699,1.128-2.981,2.622-3.838,4.468
			c-0.883,1.838-1.161,3.757-0.813,5.75c0.341,2.014,1.165,3.765,2.472,5.237l68.009,75.681h-69.668v20.581h92.831
			c2.007,0,3.875-0.579,5.566-1.736C470.925,1790.789,472.2,1789.309,473.042,1787.464z"/>
		<path id="path54" fill="#005596" d="M602.717,1680.252h-20.544v27.839H509.89v-27.839h-20.544v56.682
			c0,8.284,1.406,15.908,4.241,22.866c2.849,6.958,6.804,12.927,11.873,17.922c5.061,5.017,11.045,8.928,17.966,11.733
			c6.907,2.805,14.436,4.204,22.603,4.204h46.362c1.399,0,2.732-0.278,3.984-0.813c1.267-0.513,2.395-1.252,3.354-2.212
			s1.699-2.065,2.212-3.318c0.52-1.252,0.776-2.6,0.776-4.021V1680.252z M509.89,1728.636h72.283v44.443h-36.145
			c-0.645,0-1.978-0.103-4.014-0.293c-2.021-0.176-4.358-0.63-7.009-1.362c-2.659-0.74-5.464-1.875-8.408-3.398
			c-2.952-1.531-5.676-3.64-8.152-6.343c-2.49-2.681-4.541-6.035-6.16-10.071c-1.604-4.036-2.395-8.921-2.395-14.678V1728.636z"/>
		<path id="path56" fill="#005596" d="M734.561,1755.677c0-4.68-0.608-8.877-1.809-12.583c-1.179-3.684-2.754-6.951-4.717-9.771
			c-1.948-2.805-4.226-5.222-6.826-7.229c-2.607-1.992-5.31-3.64-8.115-4.944c-2.783-1.282-5.603-2.212-8.481-2.805
			c-2.878-0.571-5.588-0.842-8.115-0.842h-8.298v-37.251h-20.728v37.251h-8.225c-2.534,0-5.237,0.271-8.115,0.842
			c-2.856,0.593-5.698,1.523-8.518,2.805c-2.827,1.304-5.53,2.952-8.115,4.944c-2.578,2.007-4.863,4.424-6.855,7.229
			c-1.978,2.82-3.545,6.094-4.724,9.807c-1.179,3.735-1.772,7.91-1.772,12.546v37.983h20.544v-37.983
			c0-2.688,0.417-5.098,1.26-7.236c0.857-2.139,2.043-3.97,3.574-5.493c1.523-1.531,3.376-2.695,5.566-3.501
			c2.19-0.813,4.629-1.223,7.339-1.223h37.068c1.963,0.3,3.962,0.688,6.013,1.187c2.065,0.513,3.926,1.37,5.603,2.578
			c1.699,1.223,3.098,2.922,4.204,5.09c1.113,2.153,1.663,5.024,1.663,8.599v37.983h20.581V1755.677z"/>
		<path id="path58" fill="#005596" d="M885,1680.252h-20.728v67.529l-36.438-64.138c-0.886-1.626-2.146-2.856-3.765-3.691
			c-1.604-0.857-3.318-1.289-5.164-1.289c-1.794,0-3.486,0.432-5.054,1.289c-1.545,0.835-2.769,2.065-3.647,3.691l-36.628,64.138
			v-67.529h-20.544v104.634c0,2.358,0.688,4.46,2.073,6.306c1.399,1.838,3.245,3.076,5.53,3.721
			c1.106,0.271,2.212,0.352,3.318,0.256c1.106-0.073,2.161-0.315,3.171-0.696c1.033-0.403,1.963-0.952,2.805-1.663
			c0.857-0.718,1.567-1.575,2.139-2.578l46.838-81.365l46.802,81.365c1.201,2.007,2.878,3.435,5.017,4.277
			c2.139,0.828,4.358,0.967,6.68,0.403c2.205-0.645,4.028-1.882,5.457-3.721c1.421-1.846,2.139-3.948,2.139-6.306V1680.252z"/>
		<path id="path60" fill="#005596" stroke="#005596" stroke-width="0.25" d="M46.344,1639.998c0-1.648-0.212-3.12-0.63-4.424
			c-0.425-1.282-0.978-2.417-1.659-3.391c-0.663-0.989-1.454-1.838-2.362-2.542c-0.912-0.696-1.86-1.26-2.838-1.699
			c-0.989-0.447-1.981-0.776-2.988-0.996c-1.011-0.205-1.956-0.293-2.838-0.293H30.15v-13.022h-7.266v13.022h-2.878
			c-0.883,0-1.831,0.088-2.838,0.293c-0.985,0.22-1.974,0.549-2.952,0.996c-0.985,0.439-1.934,1.003-2.838,1.699
			c-0.912,0.703-1.714,1.553-2.399,2.542c-0.688,0.974-1.245,2.124-1.659,3.428c-0.421,1.304-0.626,2.769-0.626,4.387v13.279h7.192
			v-13.279c0-0.938,0.146-1.787,0.443-2.542c0.293-0.74,0.71-1.384,1.252-1.919c0.535-0.513,1.19-0.923,1.956-1.216
			c0.754-0.293,1.604-0.439,2.545-0.439h12.946c0.681,0.117,1.381,0.264,2.102,0.439c0.736,0.168,1.399,0.461,1.992,0.886
			c0.59,0.439,1.069,1.033,1.436,1.772c0.388,0.754,0.59,1.772,0.59,3.018v13.279h7.196V1639.998z M94.398,1629.678
			c0-2.417-0.425-4.644-1.256-6.68c-0.809-2.021-1.952-3.757-3.428-5.237c-1.472-1.472-3.226-2.637-5.237-3.464
			c-2.018-0.813-4.222-1.216-6.603-1.216h-9.738c-2.388,0-4.589,0.403-6.603,1.216c-2.018,0.828-3.761,1.992-5.237,3.464
			c-1.472,1.479-2.644,3.215-3.501,5.237c-0.839,2.036-1.256,4.263-1.256,6.68v7.559c0,2.402,0.417,4.622,1.256,6.636
			c0.857,2.043,2.029,3.779,3.501,5.237c1.476,1.479,3.219,2.629,5.237,3.472c2.014,0.828,4.215,1.252,6.603,1.252h9.738
			c2.38,0,4.585-0.425,6.603-1.252c2.01-0.842,3.765-1.992,5.237-3.472c1.476-1.458,2.618-3.193,3.428-5.237
			c0.831-2.014,1.256-4.233,1.256-6.636V1629.678z M87.206,1637.237c0,1.421-0.223,2.703-0.663,3.838
			c-0.443,1.15-1.088,2.139-1.919,2.952c-0.809,0.828-1.794,1.472-2.952,1.912c-1.161,0.461-2.424,0.703-3.798,0.703h-9.738
			c-1.403,0-2.681-0.242-3.834-0.703c-1.135-0.439-2.12-1.084-2.952-1.912c-0.839-0.813-1.494-1.802-1.956-2.952
			c-0.443-1.135-0.659-2.417-0.659-3.838v-7.559c0-1.436,0.216-2.725,0.659-3.875c0.461-1.165,1.117-2.139,1.956-2.952
			c0.831-0.813,1.816-1.458,2.952-1.919c1.154-0.439,2.432-0.659,3.834-0.659h9.664c1.403,0,2.673,0.22,3.834,0.659
			c1.154,0.461,2.15,1.106,2.988,1.919c0.831,0.813,1.476,1.787,1.919,2.952c0.439,1.15,0.663,2.439,0.663,3.875V1637.237z"/>
		<path id="path62" fill="#005596" stroke="#005596" stroke-width="0.25" d="M140.391,1617.249c0-0.52-0.103-0.996-0.297-1.443
			c-0.176-0.439-0.432-0.828-0.776-1.143c-0.319-0.322-0.699-0.579-1.143-0.776c-0.443-0.176-0.912-0.256-1.403-0.256h-16.19
			c-1.527,0-3.076,0.154-4.647,0.483c-1.575,0.337-3.094,0.857-4.57,1.545c-1.458,0.681-2.834,1.56-4.131,2.622
			c-1.282,1.077-2.417,2.336-3.395,3.794c-0.959,1.479-1.725,3.157-2.285,5.054c-0.546,1.89-0.809,3.992-0.809,6.306v19.841h7.189
			v-19.841c0-2.014,0.278-3.721,0.85-5.127c0.56-1.399,1.271-2.571,2.139-3.501c0.857-0.938,1.809-1.677,2.838-2.212
			c1.036-0.549,2.014-0.952,2.952-1.216c0.934-0.249,1.75-0.41,2.472-0.483c0.707-0.051,1.179-0.073,1.399-0.073h12.616v32.454
			h7.192V1617.249z"/>
		<path id="path64" fill="#005596" stroke="#005596" stroke-width="0.25" d="M188.364,1639.969c0-1.655-0.212-3.127-0.63-4.431
			c-0.396-1.282-0.938-2.41-1.619-3.391c-0.692-0.989-1.494-1.838-2.399-2.542c-0.886-0.696-1.835-1.274-2.842-1.736
			c-0.985-0.439-1.981-0.769-2.988-0.959c-0.985-0.205-1.915-0.293-2.802-0.293l15.011-12.986h-11.14l-14.971,12.986h-5.164v7.156
			h16.263c0.886,0.066,1.696,0.256,2.435,0.549c0.754,0.315,1.41,0.74,1.952,1.252c0.538,0.52,0.959,1.128,1.256,1.846
			c0.293,0.74,0.443,1.582,0.443,2.549v4.497c0,0.41-0.059,0.718-0.15,0.923c-0.099,0.22-0.238,0.374-0.406,0.476
			c-0.146,0.095-0.311,0.161-0.476,0.183c-0.176,0.022-0.333,0.037-0.48,0.037h-23.716v-32.454h-7.192v36.035
			c0,0.491,0.084,0.959,0.26,1.399c0.194,0.447,0.45,0.82,0.773,1.143c0.315,0.344,0.699,0.601,1.143,0.776
			c0.443,0.198,0.923,0.293,1.443,0.293h27.29c1.597,0,2.952-0.293,4.058-0.886c1.106-0.571,2.003-1.289,2.692-2.175
			c0.681-0.879,1.179-1.831,1.476-2.834c0.311-1.018,0.48-1.956,0.48-2.842V1639.969z"/>
		<path id="path66" fill="#005596" stroke="#005596" stroke-width="0.25" d="M251.854,1625.284c0-1.399-0.187-2.681-0.553-3.831
			c-0.352-1.135-0.809-2.131-1.403-2.988c-0.59-0.864-1.289-1.604-2.102-2.212c-0.795-0.623-1.611-1.128-2.468-1.516
			c-0.839-0.366-1.699-0.652-2.582-0.85c-0.868-0.176-1.681-0.256-2.439-0.256h-27.733v7.192h27.733c1.377,0,2.446,0.41,3.212,1.216
			c0.754,0.813,1.143,1.89,1.143,3.245c0,0.667-0.103,1.267-0.297,1.809c-0.201,0.564-0.498,1.04-0.883,1.436
			c-0.37,0.417-0.828,0.74-1.366,0.967c-0.542,0.22-1.143,0.33-1.809,0.33h-16.556c-1.161,0-2.417,0.198-3.761,0.623
			c-1.326,0.417-2.574,1.084-3.728,1.992c-1.161,0.93-2.117,2.139-2.875,3.618c-0.765,1.494-1.143,3.325-1.143,5.493
			c0,2.161,0.377,3.984,1.143,5.457c0.758,1.479,1.714,2.673,2.875,3.618c1.154,0.93,2.402,1.604,3.728,2.029
			c1.344,0.41,2.6,0.623,3.761,0.623h24.489v-7.192h-24.489c-1.355,0-2.417-0.417-3.171-1.252c-0.765-0.842-1.143-1.934-1.143-3.281
			c0-1.384,0.377-2.468,1.143-3.281c0.754-0.791,1.816-1.187,3.171-1.187h16.597c0.784-0.022,1.604-0.132,2.468-0.33
			c0.861-0.198,1.718-0.505,2.585-0.916c0.857-0.403,1.666-0.908,2.432-1.516c0.784-0.615,1.476-1.362,2.065-2.249
			c0.612-0.864,1.088-1.86,1.439-2.988C251.679,1627.979,251.854,1626.704,251.854,1625.284z"/>
		<path id="path68" fill="#005596" stroke="#005596" stroke-width="0.25" d="M299.469,1629.678c0-2.417-0.425-4.644-1.256-6.68
			c-0.809-2.021-1.952-3.757-3.428-5.237c-1.476-1.472-3.23-2.637-5.237-3.464c-2.021-0.813-4.222-1.216-6.603-1.216h-9.738
			c-2.388,0-4.592,0.403-6.603,1.216c-2.018,0.828-3.761,1.992-5.237,3.464c-1.476,1.479-2.644,3.215-3.505,5.237
			c-0.835,2.036-1.252,4.263-1.252,6.68v7.559c0,2.402,0.417,4.622,1.252,6.636c0.861,2.043,2.029,3.779,3.505,5.237
			c1.476,1.479,3.219,2.629,5.237,3.472c2.01,0.828,4.215,1.252,6.603,1.252h9.738c2.38,0,4.581-0.425,6.603-1.252
			c2.007-0.842,3.761-1.992,5.237-3.472c1.476-1.458,2.618-3.193,3.428-5.237c0.831-2.014,1.256-4.233,1.256-6.636V1629.678z
			 M292.277,1637.237c0,1.421-0.223,2.703-0.663,3.838c-0.443,1.15-1.088,2.139-1.919,2.952c-0.809,0.828-1.794,1.472-2.952,1.912
			c-1.161,0.461-2.424,0.703-3.798,0.703h-9.738c-1.403,0-2.681-0.242-3.834-0.703c-1.135-0.439-2.12-1.084-2.952-1.912
			c-0.839-0.813-1.494-1.802-1.956-2.952c-0.443-1.135-0.659-2.417-0.659-3.838v-7.559c0-1.436,0.216-2.725,0.659-3.875
			c0.461-1.165,1.117-2.139,1.956-2.952c0.831-0.813,1.816-1.458,2.952-1.919c1.154-0.439,2.432-0.659,3.834-0.659h9.664
			c1.403,0,2.673,0.22,3.834,0.659c1.154,0.461,2.15,1.106,2.988,1.919c0.831,0.813,1.476,1.787,1.919,2.952
			c0.439,1.15,0.663,2.439,0.663,3.875V1637.237z"/>
		<path id="path70" fill="#005596" stroke="#005596" stroke-width="0.25" d="M343.026,1613.631h-32.787
			c-0.516,0-0.996,0.081-1.439,0.256c-0.443,0.198-0.831,0.454-1.143,0.776c-0.322,0.315-0.582,0.703-0.776,1.143
			c-0.176,0.447-0.256,0.923-0.256,1.443v36.028h7.189v-32.454h29.213V1613.631z"/>
		<path id="path72" fill="#005596" stroke="#005596" stroke-width="0.25" d="M385.034,1617.249c0-0.52-0.103-0.996-0.297-1.443
			c-0.172-0.439-0.432-0.828-0.773-1.143c-0.326-0.322-0.699-0.579-1.143-0.776c-0.443-0.176-0.916-0.256-1.403-0.256h-16.194
			c-1.527,0-3.076,0.154-4.644,0.483c-1.578,0.337-3.098,0.857-4.574,1.545c-1.458,0.681-2.831,1.56-4.131,2.622
			c-1.282,1.077-2.417,2.336-3.391,3.794c-0.963,1.479-1.729,3.157-2.289,5.054c-0.546,1.89-0.813,3.992-0.813,6.306v19.841h7.192
			v-19.841c0-2.014,0.278-3.721,0.85-5.127c0.564-1.399,1.271-2.571,2.139-3.501c0.857-0.938,1.805-1.677,2.838-2.212
			c1.033-0.549,2.01-0.952,2.952-1.216c0.93-0.249,1.75-0.41,2.472-0.483c0.707-0.051,1.179-0.073,1.399-0.073h12.616v32.454h7.192
			V1617.249z"/>
		<path id="path74" fill="#005596" stroke="#005596" stroke-width="0.25" d="M429.254,1646.084h-15.857v-32.454h-7.192v32.454
			h-15.861v7.192h38.91V1646.084z"/>
		<path id="path76" fill="#005596" stroke="#005596" stroke-width="0.25" d="M434.605,1613.631h7.189v39.646h-7.189V1613.631z"/>
		<path id="path78" fill="#005596" stroke="#005596" stroke-width="0.25" d="M491.836,1629.678c0-2.417-0.425-4.644-1.252-6.68
			c-0.813-2.021-1.956-3.757-3.435-5.237c-1.472-1.472-3.223-2.637-5.237-3.464c-2.021-0.813-4.219-1.216-6.599-1.216h-9.741
			c-2.388,0-4.585,0.403-6.599,1.216c-2.021,0.828-3.765,1.992-5.237,3.464c-1.479,1.479-2.651,3.215-3.501,5.237
			c-0.842,2.036-1.26,4.263-1.26,6.68v7.559c0,2.402,0.417,4.622,1.26,6.636c0.85,2.043,2.021,3.779,3.501,5.237
			c1.472,1.479,3.215,2.629,5.237,3.472c2.014,0.828,4.211,1.252,6.599,1.252h9.741c2.38,0,4.578-0.425,6.599-1.252
			c2.014-0.842,3.765-1.992,5.237-3.472c1.479-1.458,2.622-3.193,3.435-5.237c0.828-2.014,1.252-4.233,1.252-6.636V1629.678z
			 M484.644,1637.237c0,1.421-0.227,2.703-0.667,3.838c-0.447,1.15-1.091,2.139-1.919,2.952c-0.813,0.828-1.794,1.472-2.952,1.912
			c-1.157,0.461-2.424,0.703-3.794,0.703h-9.741c-1.399,0-2.681-0.242-3.831-0.703c-1.135-0.439-2.124-1.084-2.952-1.912
			c-0.842-0.813-1.494-1.802-1.956-2.952c-0.447-1.135-0.667-2.417-0.667-3.838v-7.559c0-1.436,0.22-2.725,0.667-3.875
			c0.461-1.165,1.113-2.139,1.956-2.952c0.828-0.813,1.816-1.458,2.952-1.919c1.15-0.439,2.432-0.659,3.831-0.659h9.668
			c1.399,0,2.673,0.22,3.831,0.659c1.157,0.461,2.153,1.106,2.988,1.919c0.828,0.813,1.472,1.787,1.919,2.952
			c0.439,1.15,0.667,2.439,0.667,3.875V1637.237z"/>
		<path id="path80" fill="#005596" stroke="#005596" stroke-width="0.25" d="M538.587,1616.692c0-0.513-0.095-0.996-0.293-1.436
			c-0.205-0.447-0.461-0.835-0.769-1.143c-0.33-0.33-0.703-0.564-1.15-0.74c-0.439-0.19-0.916-0.293-1.399-0.293
			c-0.447,0-0.901,0.088-1.37,0.256c-0.439,0.176-0.835,0.425-1.179,0.776l-26.257,27.437v-27.92h-7.192v36.584
			c0,0.74,0.205,1.406,0.63,1.992c0.417,0.593,0.938,1.033,1.582,1.333c0.688,0.293,1.384,0.366,2.109,0.22
			c0.703-0.146,1.326-0.483,1.838-0.996l26.265-27.4v27.913h7.185V1616.692z"/>
		<path id="path82" fill="#005596" stroke="#005596" stroke-width="0.25" d="M604.922,1636.687c0-1.655-0.212-3.135-0.63-4.431
			c-0.396-1.282-0.938-2.417-1.619-3.391c-0.696-0.989-1.494-1.838-2.402-2.549c-0.879-0.688-1.831-1.252-2.834-1.692
			c-0.989-0.447-1.985-0.769-2.988-0.959c-0.989-0.205-1.919-0.293-2.805-0.293h-16.267v7.185h16.267
			c0.901,0.081,1.736,0.264,2.468,0.557c0.762,0.293,1.406,0.703,1.919,1.216c0.535,0.52,0.959,1.143,1.26,1.882
			c0.293,0.74,0.439,1.56,0.439,2.476v3.281c-0.073,0.879-0.256,1.699-0.557,2.468c-0.293,0.754-0.696,1.399-1.216,1.919
			c-0.513,0.535-1.135,0.959-1.846,1.252c-0.718,0.315-1.538,0.476-2.468,0.476h-16.23c-0.938,0-1.655-0.256-2.175-0.769
			c-0.498-0.498-0.732-1.208-0.732-2.139v-29.546h-7.192v29.546c0,1.838,0.33,3.398,0.996,4.68c0.681,1.304,1.531,2.344,2.542,3.135
			c1.003,0.813,2.102,1.384,3.281,1.736c1.187,0.366,2.263,0.549,3.245,0.549h16.267c1.626,0,3.069-0.212,4.351-0.623
			c1.304-0.425,2.446-0.981,3.428-1.663c0.981-0.688,1.824-1.494,2.512-2.395c0.681-0.916,1.252-1.868,1.699-2.842
			c0.461-0.989,0.791-1.985,0.996-2.988c0.19-0.981,0.293-1.919,0.293-2.798V1636.687z"/>
		<path id="path84" fill="#005596" stroke="#005596" stroke-width="0.25" d="M649.988,1613.631h-7.192v9.741h-25.261v-9.741h-7.192
			v19.805c0,2.9,0.491,5.566,1.472,8.005c1.011,2.432,2.402,4.519,4.175,6.27c1.765,1.743,3.853,3.105,6.262,4.094
			c2.41,0.974,5.039,1.472,7.896,1.472h16.23c0.483,0,0.959-0.095,1.399-0.293c0.447-0.176,0.82-0.432,1.143-0.776
			c0.344-0.322,0.601-0.696,0.776-1.143c0.19-0.439,0.293-0.908,0.293-1.399V1613.631z M617.534,1630.557h25.261v15.527h-12.649
			c-0.22,0-0.688-0.037-1.399-0.11c-0.696-0.051-1.509-0.212-2.439-0.476c-0.938-0.249-1.919-0.645-2.944-1.179
			c-1.033-0.549-1.985-1.282-2.842-2.212c-0.872-0.945-1.575-2.124-2.139-3.545c-0.571-1.399-0.85-3.113-0.85-5.127V1630.557z"/>
		<path id="path86" fill="#005596" stroke="#005596" stroke-width="0.25" d="M697.888,1639.969c0-1.655-0.212-3.127-0.623-4.431
			c-0.403-1.282-0.945-2.41-1.626-3.391c-0.688-0.989-1.494-1.838-2.402-2.542c-0.879-0.696-1.831-1.274-2.834-1.736
			c-0.989-0.439-1.985-0.769-2.988-0.959c-0.989-0.205-1.919-0.293-2.805-0.293l15.015-12.986h-11.14l-14.971,12.986h-5.164v7.156
			h16.26c0.886,0.066,1.699,0.256,2.439,0.549c0.754,0.315,1.406,0.74,1.956,1.252c0.535,0.52,0.959,1.128,1.252,1.846
			c0.293,0.74,0.439,1.582,0.439,2.549v4.497c0,0.41-0.051,0.718-0.146,0.923c-0.103,0.22-0.242,0.374-0.403,0.476
			c-0.154,0.095-0.315,0.161-0.483,0.183c-0.176,0.022-0.33,0.037-0.476,0.037h-23.716v-32.454h-7.192v36.035
			c0,0.491,0.081,0.959,0.256,1.399c0.198,0.447,0.454,0.82,0.776,1.143c0.315,0.344,0.703,0.601,1.143,0.776
			c0.439,0.198,0.923,0.293,1.443,0.293h27.29c1.597,0,2.944-0.293,4.058-0.886c1.106-0.571,2-1.289,2.688-2.175
			c0.688-0.879,1.179-1.831,1.479-2.834c0.315-1.018,0.476-1.956,0.476-2.842V1639.969z"/>
		<path id="path88" fill="#005596" stroke="#005596" stroke-width="0.25" d="M740.676,1646.084h-15.864v-32.454h-7.192v32.454
			h-15.857v7.192h38.914V1646.084z"/>
		<path id="path90" fill="#005596" stroke="#005596" stroke-width="0.25" d="M785.559,1616.692c0-0.513-0.103-0.996-0.293-1.436
			c-0.205-0.447-0.469-0.835-0.776-1.143c-0.322-0.33-0.703-0.564-1.143-0.74c-0.447-0.19-0.916-0.293-1.406-0.293
			c-0.439,0-0.901,0.088-1.362,0.256c-0.447,0.176-0.842,0.425-1.179,0.776l-26.265,27.437v-27.92h-7.192v36.584
			c0,0.74,0.205,1.406,0.63,1.992c0.417,0.593,0.938,1.033,1.589,1.333c0.681,0.293,1.377,0.366,2.102,0.22
			c0.703-0.146,1.326-0.483,1.846-0.996l26.257-27.4v27.913h7.192V1616.692z"/>
		<path id="path92" fill="#005596" stroke="#005596" stroke-width="0.25" d="M826.531,1629.825h-22.683v7.266h22.683V1629.825z
			 M829.776,1613.631h-25.928c-1.011,0-2.102,0.168-3.281,0.52c-1.179,0.337-2.278,0.916-3.281,1.729
			c-1.011,0.813-1.846,1.853-2.505,3.135c-0.667,1.274-0.996,2.849-0.996,4.724v25.928c0,0.491,0.081,0.959,0.256,1.399
			c0.19,0.447,0.447,0.82,0.769,1.143c0.315,0.344,0.703,0.601,1.15,0.776c0.439,0.198,0.916,0.293,1.436,0.293h32.38v-7.192
			h-28.799v-22.346c0-0.959,0.234-1.692,0.732-2.175c0.491-0.498,1.216-0.74,2.175-0.74h25.891V1613.631z"/>
		<path id="path94" fill="#005596" stroke="#005596" stroke-width="0.25" d="M876.321,1639.969c0-1.655-0.212-3.127-0.623-4.431
			c-0.403-1.282-0.945-2.41-1.626-3.391c-0.688-0.989-1.494-1.838-2.395-2.542c-0.886-0.696-1.838-1.274-2.842-1.736
			c-0.989-0.439-1.985-0.769-2.988-0.959c-0.989-0.205-1.919-0.293-2.805-0.293l15.015-12.986h-11.14l-14.971,12.986h-5.164v7.156
			h16.26c0.886,0.066,1.699,0.256,2.439,0.549c0.754,0.315,1.406,0.74,1.956,1.252c0.535,0.52,0.952,1.128,1.252,1.846
			c0.293,0.74,0.439,1.582,0.439,2.549v4.497c0,0.41-0.051,0.718-0.146,0.923c-0.103,0.22-0.242,0.374-0.403,0.476
			c-0.146,0.095-0.315,0.161-0.483,0.183c-0.176,0.022-0.33,0.037-0.476,0.037h-23.716v-32.454h-7.192v36.035
			c0,0.491,0.081,0.959,0.256,1.399c0.198,0.447,0.454,0.82,0.776,1.143c0.315,0.344,0.703,0.601,1.143,0.776
			c0.439,0.198,0.923,0.293,1.443,0.293h27.29c1.597,0,2.952-0.293,4.058-0.886c1.106-0.571,2-1.289,2.688-2.175
			c0.688-0.879,1.187-1.831,1.479-2.834c0.308-1.018,0.476-1.956,0.476-2.842V1639.969z"/>
	</g>
</g>
</svg>
