<?xml version="1.0" encoding="UTF-8"?> <svg xmlns="http://www.w3.org/2000/svg" xmlns:xlink="http://www.w3.org/1999/xlink" version="1.1" id="katman_1" x="0px" y="0px" viewBox="0 0 200 46" style="enable-background:new 0 0 200 46;" xml:space="preserve"> <style type="text/css"> .st0{fill:#00214C;} .st1{fill:#1D99C4;} </style> <g> <g> <g> <path class="st0" d="M64,42.3c0-0.1,0-0.1,0-0.2c0-0.1,0-0.2,0.1-0.5c0-0.3,0.2-0.6,0.6-0.9c0.3-0.3,0.8-0.5,1.3-0.5 c0,0,0.1,0,0.1,0c0,0,0.2,0,0.4,0c0.2,0,0.5,0.2,0.8,0.4L67,41l-0.1-0.1c-0.2-0.2-0.5-0.3-0.6-0.3c-0.2,0-0.3,0-0.3,0 c0,0-0.1,0-0.1,0c-0.4,0-0.7,0.1-1,0.4c-0.3,0.2-0.4,0.5-0.5,0.7c0,0.2,0,0.4,0,0.5c0,0.4,0.1,0.7,0.3,1c0.2,0.3,0.4,0.4,0.7,0.5 c0.2,0,0.4,0.1,0.5,0.1c0.3,0,0.6-0.1,0.9-0.3c0.2-0.2,0.4-0.5,0.5-0.8l0-0.1H66V42h1.8c0,0.1,0,0.3-0.1,0.6 c0,0.3-0.2,0.6-0.6,0.9c-0.3,0.3-0.7,0.5-1.2,0.5c-0.1,0-0.3,0-0.5-0.1c-0.2,0-0.5-0.2-0.8-0.4c-0.3-0.2-0.4-0.5-0.5-0.7 c0-0.2-0.1-0.4-0.1-0.4S64,42.4,64,42.3z"></path> <path class="st0" d="M68.2,42.8v-1.5h0.4v1.4c0,0.1,0,0.2,0,0.3c0,0.1,0.1,0.2,0.2,0.4s0.2,0.2,0.3,0.2c0.1,0,0.2,0,0.3,0 c0.1,0,0.2,0,0.5-0.1c0.3,0,0.4-0.3,0.4-0.8v-1.5h0.4V44h-0.4v-0.5c0,0,0,0.1-0.1,0.1c0,0-0.1,0.1-0.2,0.2 c-0.1,0.1-0.2,0.2-0.4,0.2c-0.2,0-0.3,0.1-0.4,0.1c-0.3,0-0.5-0.1-0.7-0.3c-0.2-0.2-0.3-0.4-0.3-0.7V42.8z M68.7,40.6h0.6 l-0.3,0.6L68.7,40.6z M69.5,40.6h0.6l-0.3,0.6L69.5,40.6z"></path> <path class="st0" d="M71.3,44v-2.6h0.4v0.4l0-0.1c0.2-0.2,0.5-0.4,0.8-0.4c0.1,0,0.1,0,0.3,0c0.1,0,0.2,0.1,0.3,0.1 c0.1,0.1,0.2,0.2,0.2,0.3c0.1-0.1,0.2-0.3,0.4-0.4c0.2-0.1,0.3-0.1,0.5-0.1c0,0,0,0,0.1,0c0,0,0.1,0,0.3,0c0.1,0,0.3,0.1,0.4,0.3 c0.1,0.2,0.2,0.4,0.2,0.7V44h-0.4v-1.6c0-0.4-0.1-0.7-0.3-0.7c-0.2,0-0.3-0.1-0.4-0.1c0,0-0.1,0-0.1,0c0,0-0.1,0-0.2,0 c-0.1,0-0.2,0.1-0.3,0.2c-0.1,0.1-0.1,0.3-0.1,0.5V44h-0.4v-1.6c0-0.1,0-0.2,0-0.3c0-0.1-0.1-0.1-0.1-0.2 c-0.1-0.1-0.1-0.1-0.2-0.2c-0.1,0-0.2-0.1-0.3-0.1c-0.2,0-0.4,0.1-0.5,0.2c-0.1,0.1-0.2,0.3-0.2,0.5V44H71.3z"></path> <path class="st0" d="M75.9,44v-2.6h0.4v0.4l0-0.1c0.2-0.3,0.4-0.4,0.7-0.4h0.1v0.4l-0.1,0c-0.3,0-0.4,0.1-0.5,0.2 c-0.1,0.1-0.2,0.2-0.2,0.3c0,0.1,0,0.2,0,0.3V44H75.9z"></path> <path class="st0" d="M77.5,42.8v-1.5h0.4v1.4c0,0.1,0,0.2,0,0.3c0,0.1,0.1,0.2,0.2,0.4c0.1,0.1,0.2,0.2,0.3,0.2 c0.1,0,0.2,0,0.3,0c0.1,0,0.2,0,0.5-0.1c0.3,0,0.4-0.3,0.4-0.8v-1.5h0.4V44h-0.4v-0.5c0,0,0,0.1-0.1,0.1c0,0-0.1,0.1-0.2,0.2 c-0.1,0.1-0.2,0.2-0.4,0.2c-0.2,0-0.3,0.1-0.4,0.1c-0.3,0-0.5-0.1-0.7-0.3c-0.2-0.2-0.3-0.4-0.3-0.7V42.8z M78,40.6h0.6l-0.3,0.6 L78,40.6z M78.7,40.6h0.6l-0.3,0.6L78.7,40.6z"></path> <path class="st0" d="M80.6,44v-3.7l0.4-0.1v2.2l1.6-1.1l0.2,0.3l-1.4,0.9l1.6,1.3l-0.3,0.3L81,42.6V44H80.6z"></path> <path class="st0" d="M83.3,44v-3.7l0.4-0.1V44H83.3z"></path> <path class="st0" d="M84.2,42.8c0,0,0-0.1,0-0.1c0,0,0-0.1,0-0.1c0,0,0-0.1,0-0.3c0-0.1,0.1-0.3,0.2-0.5c0.1-0.2,0.3-0.3,0.5-0.4 c0.2-0.1,0.4-0.1,0.6-0.1c0.3,0,0.5,0.1,0.8,0.3c0.2,0.2,0.4,0.4,0.5,0.7l0,0.2L84.7,43l0,0.1c0.1,0.3,0.3,0.5,0.5,0.6 c0.2,0,0.4,0.1,0.4,0.1c0.2,0,0.4,0,0.5-0.1s0.3-0.2,0.4-0.4l0-0.1l0.3,0.1c-0.1,0.1-0.2,0.3-0.3,0.5c-0.2,0.2-0.5,0.3-1,0.3 c-0.4,0-0.7-0.1-1-0.4C84.4,43.4,84.2,43.1,84.2,42.8z M84.6,42.7l1.8-0.5l0,0l0,0L86.4,42c-0.1-0.1-0.2-0.2-0.3-0.3 c-0.1-0.1-0.3-0.1-0.4-0.1c-0.1,0-0.2,0-0.3,0.1c-0.2,0-0.3,0.1-0.4,0.3c-0.1,0.2-0.2,0.4-0.2,0.6c0,0,0,0.1,0,0.1 C84.6,42.7,84.6,42.7,84.6,42.7z"></path> <path class="st0" d="M87.4,44v-2.6h0.4v0.4l0-0.1c0.2-0.2,0.5-0.4,0.8-0.4c0.1,0,0.1,0,0.3,0c0.1,0,0.2,0.1,0.3,0.1 c0.1,0.1,0.2,0.2,0.2,0.3c0.1-0.1,0.2-0.3,0.4-0.4c0.2-0.1,0.3-0.1,0.5-0.1c0,0,0,0,0.1,0c0,0,0.1,0,0.3,0c0.1,0,0.3,0.1,0.4,0.3 s0.2,0.4,0.2,0.7V44H91v-1.6c0-0.4-0.1-0.7-0.3-0.7c-0.2,0-0.3-0.1-0.4-0.1c0,0-0.1,0-0.1,0c0,0-0.1,0-0.2,0 c-0.1,0-0.2,0.1-0.3,0.2c-0.1,0.1-0.1,0.3-0.1,0.5V44h-0.4v-1.6c0-0.1,0-0.2,0-0.3c0-0.1-0.1-0.1-0.1-0.2 c-0.1-0.1-0.1-0.1-0.2-0.2c-0.1,0-0.2-0.1-0.3-0.1c-0.2,0-0.4,0.1-0.5,0.2c-0.1,0.1-0.2,0.3-0.2,0.5V44H87.4z"></path> <path class="st0" d="M91.9,42.8c0,0,0-0.1,0-0.1c0,0,0-0.1,0-0.1c0,0,0-0.1,0-0.3c0-0.1,0.1-0.3,0.2-0.5c0.1-0.2,0.3-0.3,0.5-0.4 c0.2-0.1,0.4-0.1,0.6-0.1c0.3,0,0.5,0.1,0.8,0.3c0.2,0.2,0.4,0.4,0.5,0.7l0,0.2L92.4,43l0,0.1c0.1,0.3,0.3,0.5,0.5,0.6 c0.2,0,0.4,0.1,0.4,0.1c0.2,0,0.4,0,0.5-0.1c0.2-0.1,0.3-0.2,0.4-0.4l0-0.1l0.3,0.1c-0.1,0.1-0.2,0.3-0.3,0.5 c-0.2,0.2-0.5,0.3-1,0.3c-0.4,0-0.7-0.1-1-0.4C92,43.4,91.9,43.1,91.9,42.8z M92.3,42.7l1.8-0.5l0,0l0,0L94.1,42 c-0.1-0.1-0.2-0.2-0.3-0.3c-0.1-0.1-0.3-0.1-0.4-0.1c-0.1,0-0.2,0-0.3,0.1c-0.2,0-0.3,0.1-0.4,0.3c-0.1,0.2-0.2,0.4-0.2,0.6 c0,0,0,0.1,0,0.1C92.3,42.7,92.3,42.7,92.3,42.7z"></path> <path class="st0" d="M96.1,41.4l0.4,0l1,1.9l1-1.9l0.4,0l-1.4,2.7L96.1,41.4z"></path> <path class="st0" d="M99.1,42.8c0,0,0-0.1,0-0.1c0,0,0-0.1,0-0.1c0,0,0-0.1,0-0.3c0-0.1,0.1-0.3,0.2-0.5c0.1-0.2,0.3-0.3,0.5-0.4 c0.2-0.1,0.4-0.1,0.6-0.1c0.3,0,0.5,0.1,0.8,0.3c0.2,0.2,0.4,0.4,0.5,0.7l0,0.2L99.5,43l0,0.1c0.1,0.3,0.3,0.5,0.5,0.6 c0.2,0,0.4,0.1,0.4,0.1c0.2,0,0.4,0,0.5-0.1s0.3-0.2,0.4-0.4l0-0.1l0.3,0.1c-0.1,0.1-0.2,0.3-0.3,0.5c-0.2,0.2-0.5,0.3-1,0.3 c-0.4,0-0.7-0.1-1-0.4C99.2,43.4,99.1,43.1,99.1,42.8z M99.5,42.7l1.8-0.5l0,0l0,0l-0.1-0.1c-0.1-0.1-0.2-0.2-0.3-0.3 c-0.1-0.1-0.3-0.1-0.4-0.1c-0.1,0-0.2,0-0.3,0.1c-0.2,0-0.3,0.1-0.4,0.3c-0.1,0.2-0.2,0.4-0.2,0.6c0,0,0,0.1,0,0.1 C99.5,42.7,99.5,42.7,99.5,42.7z"></path> <path class="st0" d="M103.7,44v-3.7h0.5v3.3h1.9V44H103.7z"></path> <path class="st0" d="M106.3,42.7c0-0.4,0.1-0.7,0.4-1c0.3-0.3,0.6-0.4,1-0.4c0.1,0,0.1,0,0.2,0c0.1,0,0.2,0,0.4,0.1 c0.2,0,0.4,0.2,0.6,0.4c0.2,0.2,0.3,0.6,0.3,0.9c0,0.4-0.1,0.7-0.3,0.9c-0.2,0.2-0.4,0.4-0.6,0.4c-0.2,0-0.4,0.1-0.5,0.1 c-0.4,0-0.7-0.1-1-0.4C106.4,43.4,106.3,43.1,106.3,42.7z M106.7,42.7c0,0.3,0.1,0.5,0.2,0.7c0.1,0.2,0.3,0.3,0.5,0.3 c0.2,0,0.3,0,0.3,0c0.1,0,0.2,0,0.3,0c0.2,0,0.3-0.1,0.5-0.3c0.2-0.2,0.2-0.4,0.2-0.7c0,0,0-0.1,0-0.1c0,0,0-0.1,0-0.2 c0-0.1-0.1-0.3-0.3-0.4c-0.2-0.2-0.4-0.2-0.7-0.2c-0.3,0-0.5,0.1-0.7,0.3C106.8,42.1,106.7,42.3,106.7,42.7z"></path> <path class="st0" d="M108.7,45v-0.3h0.1c0.3,0,0.5-0.1,0.7-0.2c0.1-0.1,0.2-0.4,0.2-0.7v-2.4h0.4v2.5c0,0.4-0.1,0.7-0.3,0.9 c-0.2,0.2-0.5,0.3-0.9,0.3H108.7z M109.5,40.3h0.7l-0.3,0.6L109.5,40.3z"></path> <path class="st0" d="M110.6,40.3h0.7l-0.3,0.6L110.6,40.3z M110.7,44v-2.6h0.4V44H110.7z"></path> <path class="st0" d="M113.4,41.3v0.3l-0.1,0l-0.1,0l-0.2,0c-0.1,0-0.2,0-0.3,0c-0.1,0-0.2,0-0.3,0s-0.2,0.1-0.2,0.1 s-0.1,0.1-0.1,0.1s0,0.1,0,0.1c0,0.1,0.1,0.2,0.2,0.3l0.1,0.1l0.1,0l0.1,0l0.1,0l0,0l0.2,0.1c0.1,0,0.2,0.1,0.3,0.1 c0.1,0,0.1,0.1,0.2,0.1c0.1,0,0.1,0.1,0.2,0.2c0,0.1,0.1,0.2,0.1,0.3c0,0.2-0.1,0.4-0.2,0.5c-0.1,0.1-0.3,0.2-0.4,0.2 c-0.2,0-0.4,0.1-0.6,0.1c-0.2,0-0.3,0-0.5,0l-0.1,0v-0.3c0.2,0,0.4,0,0.5,0c0.3,0,0.5,0,0.6,0c0.1,0,0.3-0.1,0.3-0.1 c0.1-0.1,0.1-0.1,0.1-0.2c0-0.1,0-0.1-0.1-0.2c0,0-0.1-0.1-0.1-0.1c0,0-0.1-0.1-0.2-0.1l-0.1,0l-0.2-0.1l-0.2-0.1 c-0.5-0.2-0.7-0.4-0.7-0.7c0,0,0-0.1,0-0.1c0,0,0-0.1,0.1-0.2c0-0.1,0.2-0.2,0.4-0.3s0.5-0.1,0.9-0.1h0.2l0.1,0L113.4,41.3z"></path> <path class="st0" d="M113.8,41.6l0-0.3h0.3v-0.7l0.4-0.2v0.8h0.7l-0.1,0.3h-0.6V43v0v0.2c0,0.3,0.2,0.5,0.6,0.5h0.1V44l-0.1,0 c-0.4,0-0.6-0.1-0.8-0.2c-0.1-0.1-0.2-0.4-0.2-0.8v-1.4H113.8z"></path> <path class="st0" d="M115.4,40.3h0.7l-0.3,0.6L115.4,40.3z M115.5,44v-2.6h0.4V44H115.5z"></path> <path class="st0" d="M116.6,44v-3.7l0.4-0.1v2.2l1.6-1.1l0.2,0.3l-1.4,0.9l1.6,1.3l-0.3,0.3l-1.8-1.5V44H116.6z"></path> <path class="st0" d="M120.8,44v-3.7h0.5v1.6h2.2v-1.6h0.5V44h-0.5v-2l-1.1,0.5l-1.1-0.5v2H120.8z"></path> <path class="st0" d="M124.4,40.3h0.7l-0.3,0.6L124.4,40.3z M124.6,44v-2.6h0.4V44H124.6z"></path> <path class="st0" d="M125.4,44l1.7-2.3h-1.6v-0.3h2.3l-1.7,2.3h1.7V44H125.4z"></path> <path class="st0" d="M128.3,44v-2.6h0.4v0.4l0-0.1c0.2-0.2,0.5-0.4,0.8-0.4c0.1,0,0.1,0,0.3,0c0.1,0,0.2,0.1,0.3,0.1 c0.1,0.1,0.2,0.2,0.2,0.3c0.1-0.1,0.2-0.3,0.4-0.4c0.2-0.1,0.3-0.1,0.5-0.1c0,0,0,0,0.1,0c0,0,0.1,0,0.3,0c0.1,0,0.3,0.1,0.4,0.3 c0.1,0.2,0.2,0.4,0.2,0.7V44h-0.4v-1.6c0-0.4-0.1-0.7-0.3-0.7c-0.2,0-0.3-0.1-0.4-0.1c0,0-0.1,0-0.1,0c0,0-0.1,0-0.2,0 c-0.1,0-0.2,0.1-0.3,0.2c-0.1,0.1-0.1,0.3-0.1,0.5V44h-0.4v-1.6c0-0.1,0-0.2,0-0.3c0-0.1-0.1-0.1-0.1-0.2 c-0.1-0.1-0.1-0.1-0.2-0.2c-0.1,0-0.2-0.1-0.3-0.1c-0.2,0-0.4,0.1-0.5,0.2c-0.1,0.1-0.2,0.3-0.2,0.5V44H128.3z"></path> <path class="st0" d="M132.7,42.8c0,0,0-0.1,0-0.1c0,0,0-0.1,0-0.1c0,0,0-0.1,0-0.3c0-0.1,0.1-0.3,0.2-0.5 c0.1-0.2,0.3-0.3,0.5-0.4c0.2-0.1,0.4-0.1,0.6-0.1c0.3,0,0.5,0.1,0.8,0.3c0.2,0.2,0.4,0.4,0.5,0.7l0,0.2l-2.2,0.6l0,0.1 c0.1,0.3,0.3,0.5,0.5,0.6c0.2,0,0.4,0.1,0.4,0.1c0.2,0,0.4,0,0.5-0.1c0.2-0.1,0.3-0.2,0.4-0.4l0-0.1l0.3,0.1 c-0.1,0.1-0.2,0.3-0.3,0.5c-0.2,0.2-0.5,0.3-1,0.3c-0.4,0-0.7-0.1-1-0.4C132.9,43.4,132.7,43.1,132.7,42.8z M133.2,42.7l1.8-0.5 l0,0l0,0l-0.1-0.1c-0.1-0.1-0.2-0.2-0.3-0.3c-0.1-0.1-0.3-0.1-0.4-0.1c-0.1,0-0.2,0-0.3,0.1c-0.2,0-0.3,0.1-0.4,0.3 c-0.1,0.2-0.2,0.4-0.2,0.6c0,0,0,0.1,0,0.1C133.1,42.7,133.1,42.7,133.2,42.7z"></path> <path class="st0" d="M135.6,41.6l0-0.3h0.3v-0.7l0.4-0.2v0.8h0.7l-0.1,0.3h-0.6V43v0v0.2c0,0.3,0.2,0.5,0.6,0.5h0.1V44l-0.1,0 c-0.4,0-0.6-0.1-0.8-0.2c-0.1-0.1-0.2-0.4-0.2-0.8v-1.4H135.6z"></path> <path class="st0" d="M137.4,44v-3.7l0.4-0.1V44H137.4z"></path> <path class="st0" d="M138.3,42.8c0,0,0-0.1,0-0.1c0,0,0-0.1,0-0.1c0,0,0-0.1,0-0.3c0-0.1,0.1-0.3,0.2-0.5 c0.1-0.2,0.3-0.3,0.5-0.4c0.2-0.1,0.4-0.1,0.6-0.1c0.3,0,0.5,0.1,0.8,0.3c0.2,0.2,0.4,0.4,0.5,0.7l0,0.2l-2.2,0.6l0,0.1 c0.1,0.3,0.3,0.5,0.5,0.6c0.2,0,0.4,0.1,0.4,0.1c0.2,0,0.4,0,0.5-0.1s0.3-0.2,0.4-0.4l0-0.1l0.3,0.1c-0.1,0.1-0.2,0.3-0.3,0.5 c-0.2,0.2-0.5,0.3-1,0.3c-0.4,0-0.7-0.1-1-0.4C138.4,43.4,138.3,43.1,138.3,42.8z M138.7,42.7l1.8-0.5l0,0l0,0l-0.1-0.1 c-0.1-0.1-0.2-0.2-0.3-0.3c-0.1-0.1-0.3-0.1-0.4-0.1c-0.1,0-0.2,0-0.3,0.1c-0.2,0-0.3,0.1-0.4,0.3c-0.1,0.2-0.2,0.4-0.2,0.6 c0,0,0,0.1,0,0.1C138.7,42.7,138.7,42.7,138.7,42.7z"></path> <path class="st0" d="M141.5,44v-2.6h0.4v0.4l0-0.1c0.2-0.3,0.4-0.4,0.7-0.4h0.1v0.4l-0.1,0c-0.3,0-0.4,0.1-0.5,0.2 c-0.1,0.1-0.2,0.2-0.2,0.3c0,0.1,0,0.2,0,0.3V44H141.5z"></path> <path class="st0" d="M142.9,40.3h0.7l-0.3,0.6L142.9,40.3z M143.1,44v-2.6h0.4V44H143.1z"></path> </g> <path class="st0" d="M76.6,34.1h-8.1c-0.3,0-0.6-0.4-0.6-0.8V20.5c0-0.3,0-0.4-0.2-0.4c-0.2,0-0.2,0.1-0.4,0.4l-3,4.5 c-0.4,0.6-0.7,0.8-1.1,0.8h-2.4c-0.5,0-0.7-0.2-1.1-0.8l-3-4.5c-0.2-0.2-0.2-0.4-0.4-0.4c-0.2,0-0.2,0-0.2,0.4v12.9 c0,0.5-0.2,0.8-0.6,0.8h-8.1c-0.3,0-0.7,0-0.7-0.5V5.1c0-0.8,0.7-1.4,1.4-1.4h5.4c1.2,0,1.8,0.5,2.4,1.4l5.6,9.1 c0.2,0.3,0.3,0.5,0.5,0.5c0.2,0,0.3-0.2,0.5-0.5L68,5c0.5-0.9,1.1-1.4,2.4-1.4h5.4c0.8,0,1.4,0.7,1.4,1.4v28.6 C77.2,34.1,76.8,34.1,76.6,34.1z"></path> <path class="st0" d="M113.8,34.1c-1.6,0.3-4.1,0.5-6.2,0.5c-5.2,0-11-1.2-11-9.6V4.4c0-0.5,0.4-0.8,0.9-0.8h8 c0.5,0,0.8,0.4,0.8,0.8v20.5c0,1,0.3,1.3,1.4,1.3h6.2c0.5,0,0.8,0.4,0.8,0.8v6.2C114.6,33.7,114.3,34,113.8,34.1z"></path> <path class="st0" d="M135.1,34.1c-0.5,0-0.8-0.4-0.9-0.8l-0.7-4.6h-6.2l-0.7,4.6c-0.1,0.5-0.4,0.8-0.9,0.8h-8.5 c-0.5,0-0.7-0.4-0.6-0.8l4.9-24.8c0.8-4.2,4-5.3,9-5.3c5,0,8.2,1.1,9,5.3l4.9,24.8c0.1,0.5-0.1,0.8-0.6,0.8H135.1z M130.7,11.6 c0-0.3-0.1-0.5-0.4-0.5c-0.3,0-0.3,0.2-0.4,0.5l-1.5,9.6h3.8L130.7,11.6z"></path> <path class="st1" d="M169.4,33.8c-0.2,0.2-0.5,0.3-0.8,0.3H166c-0.7,0-1.1-0.2-1.3-0.7L152,9.4c-0.1-0.1-0.1-0.1-0.1-0.1 c0,0,0,0,0,0.1v24c0,0.2-0.1,0.4-0.2,0.6c-0.1,0.2-0.3,0.2-0.5,0.2H149c-0.2,0-0.4,0-0.5-0.1c-0.1-0.1-0.2-0.2-0.2-0.4V4.8 c0-0.3,0.1-0.6,0.3-0.8c0.2-0.2,0.5-0.3,0.8-0.3h2.3c0.6,0,1,0.1,1.1,0.2c0.2,0.1,0.4,0.3,0.5,0.6l12.6,24l0.1,0.1c0,0,0,0,0-0.1 v-24c0-0.2,0.1-0.4,0.2-0.6c0.1-0.2,0.3-0.2,0.5-0.2h2.2c0.2,0,0.4,0.1,0.5,0.2c0.1,0.2,0.2,0.3,0.2,0.6v28.5 C169.7,33.3,169.6,33.6,169.4,33.8z"></path> <path class="st1" d="M197.7,21.5c0,2.3-0.3,4.2-0.8,5.9c-0.5,1.6-1.3,3-2.3,4c-1,1-2.2,1.8-3.5,2.3c-1.4,0.5-2.8,0.7-4.5,0.7 c-1.6,0-3.1-0.2-4.5-0.7c-1.4-0.5-2.5-1.3-3.5-2.3c-1-1-1.8-2.4-2.3-4c-0.6-1.6-0.8-3.6-0.8-5.9v-5.3c0-2.3,0.3-4.2,0.8-5.9 c0.6-1.6,1.3-3,2.3-4c1-1,2.2-1.8,3.5-2.3c1.4-0.5,2.8-0.7,4.5-0.7c1.6,0,3.1,0.2,4.5,0.7c1.4,0.5,2.5,1.3,3.5,2.3 c1,1,1.8,2.4,2.3,4c0.5,1.6,0.8,3.6,0.8,5.9V21.5z M193.9,16.2c0-1.7-0.2-3.2-0.5-4.4c-0.3-1.2-0.8-2.2-1.5-3 c-0.6-0.8-1.4-1.3-2.3-1.7c-0.9-0.3-1.9-0.5-3-0.5s-2.1,0.2-3,0.5c-0.9,0.3-1.7,0.9-2.3,1.7c-0.6,0.8-1.1,1.8-1.5,3 c-0.3,1.2-0.5,2.7-0.5,4.4v5.3c0,1.7,0.2,3.2,0.5,4.4c0.3,1.2,0.8,2.2,1.5,3c0.6,0.8,1.4,1.3,2.3,1.7c0.9,0.3,1.9,0.5,3.1,0.5 s2.1-0.2,3-0.5c0.9-0.3,1.7-0.9,2.3-1.7c0.6-0.8,1.1-1.8,1.5-3c0.3-1.2,0.5-2.7,0.5-4.4V16.2z"></path> <g> <path class="st0" d="M144.1,36.6C144.1,36.6,144.1,36.6,144.1,36.6C144.2,36.6,144.2,36.6,144.1,36.6c0.1-0.1,0.2-0.1,0.2-0.1 c0,0,0.1,0,0.1-0.1c0,0,0-0.1,0-0.1c0,0-0.1,0-0.1,0c-0.3-0.1-0.5-0.1-0.8-0.1c-0.2,0-0.5-0.1-0.7-0.1c-0.1,0-0.3,0-0.4,0 c-0.1,0-0.2,0-0.3,0c-0.1-0.1-0.3-0.1-0.5-0.1c-0.2,0-0.4,0-0.5,0c-0.1,0-0.1,0-0.2,0.1c0,0,0,0,0,0c-0.1-0.1-0.2-0.1-0.3-0.1 c-0.2,0-0.3,0-0.5,0c-0.2,0-0.5,0-0.7-0.1c0,0-0.1,0-0.1,0c-0.2-0.1-0.3-0.1-0.5-0.1c-0.2,0-0.4,0-0.6,0c-0.1,0-0.2,0-0.3,0 c-0.1,0-0.2,0-0.2,0c-0.3,0-0.5,0-0.8,0c-0.1,0-0.3,0-0.4,0c0,0,0,0-0.1,0c-0.2-0.1-0.4-0.1-0.6,0c-0.1,0-0.2,0-0.3,0 c-0.1,0-0.1,0-0.2,0c-0.1,0-0.2,0-0.3-0.1c-0.3,0-0.6,0-0.8,0c-0.1,0-0.3,0-0.4,0.1c0-0.1-0.1-0.1-0.1-0.1c-0.3,0-0.5-0.1-0.8,0 c0,0-0.1,0-0.1,0c0,0-0.1-0.1-0.1-0.1c0,0-0.1,0-0.1,0c-0.2,0-0.4,0.1-0.6,0c-0.1,0-0.2,0-0.3,0c0,0-0.1,0-0.1,0 c-0.1,0-0.2,0-0.3,0c0,0,0,0,0,0c0.1,0,0.1-0.1,0.2-0.1c-0.1,0-0.1,0-0.2,0c-0.1,0-0.2,0-0.3,0c-0.1,0-0.2,0-0.2,0 c-0.1,0-0.2,0-0.3,0c-0.4,0-0.7,0-1.1,0c-0.5,0-1,0-1.4,0c-0.5,0-0.9-0.1-1.4-0.1c-0.4,0-0.9,0-1.3,0c-0.2,0-0.4,0-0.7,0 c-0.1,0-0.1,0-0.2,0c-0.1,0-0.2,0-0.3,0c-0.1,0-0.2,0-0.4,0c-0.2,0-0.3,0-0.5,0c-0.3-0.1-0.6-0.1-1-0.1c-0.2,0-0.5,0-0.7,0 c-0.1,0-0.1,0-0.2,0.1c0,0-0.1,0-0.2,0c-0.1,0-0.3,0-0.4,0c-0.2,0-0.5-0.1-0.7-0.1c-0.1,0-0.2,0-0.3,0c0,0-0.1,0-0.2,0 c-0.2,0-0.4,0-0.6,0c-0.1,0-0.2,0-0.4,0c-0.1,0-0.1,0-0.2,0c-0.5,0-0.9,0-1.4,0c-0.3,0-0.7,0-1,0c-0.1,0-0.1,0-0.2,0 c-0.1,0-0.1,0-0.2,0c-0.2,0-0.4-0.1-0.6-0.1c-0.3,0-0.6,0-0.8,0c-0.1,0-0.3,0-0.4,0c-0.1,0-0.2,0-0.2,0.1c0,0.1,0,0.1-0.1,0.2 c-0.1,0-0.3-0.1-0.4-0.2c0.1,0,0.1-0.1,0.2-0.1c0,0,0,0,0,0c-0.2,0-0.4,0-0.6,0c-0.1,0-0.2,0-0.3,0.1c0,0-0.1,0-0.1,0 c0,0-0.1,0-0.1,0c-0.1,0-0.1,0-0.1-0.1c-0.1,0-0.3,0-0.4,0c0,0-0.1,0-0.1,0c-0.1,0-0.2,0-0.3,0c0,0-0.1,0-0.1,0 c-0.1,0-0.2,0-0.3,0c-0.1,0-0.1,0-0.2,0c-0.1,0-0.3,0-0.4,0c-0.1,0-0.3,0-0.4,0c-0.1,0-0.2,0-0.3,0.1c-0.1,0.1-0.2,0.1-0.4,0 c-0.1,0-0.3-0.1-0.4-0.1c-0.2,0-0.4,0-0.5,0c0,0,0,0-0.1,0c0,0.1,0,0.1,0.1,0.2c-0.1,0-0.1,0-0.2,0c-0.2,0-0.3,0-0.5-0.1 c-0.3-0.1-0.6-0.1-0.9-0.1c-0.1,0-0.2,0-0.2,0c-0.1,0.1-0.3,0.1-0.4,0.1c-0.1,0-0.2,0-0.3,0c0,0,0,0,0,0.1c-0.1,0-0.2,0-0.3-0.1 c-0.2,0-0.3-0.1-0.5,0c-0.1,0-0.2,0-0.2,0c-0.2-0.1-0.4,0-0.6,0c0,0-0.1,0-0.1,0c-0.1,0.1-0.2,0.1-0.3,0c-0.1,0-0.1,0-0.2,0 c-0.3-0.1-0.6,0-0.9,0c-0.1,0-0.2,0-0.2,0c-0.1,0-0.2,0-0.4,0c0,0-0.1,0-0.1,0c0,0-0.1,0.1-0.1,0.1c-0.1,0-0.2-0.1-0.3-0.1 c-0.1,0-0.3-0.1-0.4,0c-0.1,0-0.2,0-0.3,0c-0.3,0-0.7,0-1,0c-0.5,0-1,0-1.4,0c-0.1,0-0.2,0-0.3,0c-0.1,0-0.2,0-0.1,0.1 c-0.1,0-0.1,0-0.2,0c-0.1,0-0.1,0-0.2,0c-0.1,0-0.1,0-0.2,0.1c0,0-0.1,0.1-0.1,0.1c-0.1,0-0.2,0-0.3-0.1c-0.4,0-0.7,0-1.1,0 c-0.1,0-0.1,0-0.2,0c-0.1,0-0.2,0-0.3,0c-0.1,0-0.2,0-0.3,0c-0.1,0-0.2,0-0.3,0.1c0,0,0,0,0,0c0,0,0,0,0,0c-0.1-0.1-0.3,0-0.4,0 c0,0-0.1,0-0.2,0c-0.1,0-0.2,0-0.3,0c0,0,0-0.1,0.1-0.1c-0.2,0-0.3,0-0.5,0c-0.2,0-0.4,0.1-0.6,0.1c-0.4,0-0.8,0-1.3,0.1 c-0.3,0-0.7,0-1,0c-0.1,0-0.2,0-0.4,0.1c0,0-0.1,0-0.1,0c-0.1,0-0.1,0-0.2,0c0,0.1-0.1,0.1-0.2,0.1c-0.1,0-0.1,0-0.2,0 c-0.1,0-0.1,0-0.2,0c-0.2,0-0.4,0-0.5,0c-0.1,0-0.2,0-0.3,0c-0.1,0-0.1,0-0.2,0c-0.1,0-0.2,0-0.2,0c-0.3,0-0.5,0.1-0.8,0 c0,0-0.1,0-0.1,0c0,0,0,0.1,0,0.1c0,0,0,0-0.1,0c-0.1,0-0.2,0-0.2,0c-0.1,0-0.2,0-0.2,0c-0.1,0-0.1,0-0.2,0c-0.1,0-0.1,0-0.2,0 c0,0-0.1,0-0.1,0c0,0,0,0.1,0,0.1c-0.1,0-0.1,0-0.1,0c-0.1,0-0.3,0-0.4,0c-0.3,0-0.6,0-0.9,0c-0.4,0-0.7,0.1-1.1,0.1 c-0.2,0-0.4,0-0.7,0c0,0-0.1,0-0.1,0c0,0.1,0,0.1-0.1,0.2c0,0.1-0.1,0.1-0.2,0.1c0,0,0-0.1,0.1-0.1c-0.1,0-0.2,0-0.3,0 c-0.2,0-0.5,0-0.7,0c-0.1,0-0.2,0-0.3,0c-0.2,0-0.4,0-0.5,0c-0.1,0-0.3,0-0.4,0.1c-0.1,0.1-0.2,0.1-0.3,0c-0.2,0-0.4,0-0.5,0 c-0.1,0-0.1,0-0.1,0.1c-0.1,0-0.1,0-0.2,0c-0.1,0-0.2,0-0.3,0c-0.2,0-0.4,0-0.6,0c-0.1,0-0.1,0-0.2,0c-0.2,0-0.4,0-0.6,0 c-0.1,0-0.3,0-0.4,0c-0.1,0-0.2,0-0.3,0.1c0,0-0.1,0-0.1,0c0,0,0,0-0.1,0c-0.1,0-0.2,0-0.3,0.1c0,0,0,0,0,0 c-0.1,0-0.2-0.1-0.3-0.1c0,0.1-0.1,0.1-0.2,0.1c-0.1,0-0.1,0-0.2,0c-0.3,0-0.7,0-1,0c-0.2,0-0.4,0-0.6,0c-0.1,0-0.3,0-0.4,0.1 c-0.1,0-0.1,0-0.1,0.1c0,0-0.1-0.1-0.2-0.1c-0.1,0-0.2,0-0.3,0c0,0,0,0,0,0c0,0-0.1,0-0.1,0c0,0,0,0,0.1,0c0,0,0.1,0,0.1,0 c0,0,0,0-0.1,0c-0.2,0-0.4,0-0.7-0.1c-0.2,0-0.4,0-0.5,0.1c0,0-0.1,0-0.2,0c-0.1,0-0.3,0-0.4,0c-0.1,0-0.1,0-0.2,0 c0,0,0,0.1,0,0.1c-0.1,0-0.2,0-0.2,0c-0.1,0-0.2,0-0.3,0c0,0-0.1,0-0.2,0c-0.3,0-0.6,0.1-0.9,0.1c-0.2,0-0.5,0-0.7,0.1 c-0.1,0-0.2,0-0.2,0.1c0,0,0,0,0,0c-0.1,0-0.2,0-0.3,0c-0.3,0-0.5,0-0.7,0.1c-0.1,0-0.1,0.1-0.2,0.1C67.1,38,67,38,67,38 c-0.1,0-0.2,0-0.3,0.1c-0.1,0.1-0.2,0.1-0.3,0c0,0,0-0.1,0.1-0.1c-0.3,0-0.6,0-0.9,0c-0.4,0-0.9,0.1-1.3,0.2 c-0.1,0-0.2,0-0.3,0.1c-0.1,0-0.1,0-0.2,0c-0.1,0-0.2,0-0.3,0c-0.2,0.1-0.4,0.1-0.6,0.1c-0.4,0-0.9,0.1-1.3,0.1 c-0.1,0-0.1,0-0.2,0c0,0,0.1,0,0.1,0c0.1,0,0.1,0.1,0,0.1c0,0-0.1,0-0.2,0c-0.1,0-0.1,0-0.2,0c-0.1,0-0.2,0-0.3,0 c-0.1,0-0.3,0-0.4,0c-0.2,0-0.4,0.1-0.6,0.1c-0.1,0-0.1,0-0.1,0.1c-0.1,0-0.1,0-0.2,0c-0.1,0-0.3,0-0.4,0.1 c-0.1,0-0.2,0.1-0.3,0.1c-0.1,0-0.2,0-0.3,0c-0.2,0-0.4,0-0.7,0c-0.4,0-0.8,0.1-1.3,0.3c-0.1,0-0.1,0-0.2,0.1 c-0.1,0-0.1,0.1,0,0.1c0,0,0,0.1,0.1,0.1c0.1,0.1,0.2,0.1,0.3,0.2c0,0,0,0,0,0c0,0,0,0,0,0c-0.1,0-0.1,0-0.2,0 c-0.1,0-0.1-0.1-0.1-0.1c-0.1,0-0.2,0-0.3,0c0,0,0,0,0-0.1c0-0.1-0.1-0.1-0.2-0.1c-0.2,0-0.5-0.1-0.7,0c0,0-0.1,0-0.1,0 c0,0-0.1,0.1-0.2,0.1c-0.1,0-0.2,0-0.2,0c-0.1,0-0.2,0-0.3,0c-0.1,0-0.2,0.1-0.2,0.2c0.1,0,0.2,0,0.3,0c0,0.1,0,0.1-0.1,0.1 c-0.2,0-0.4,0-0.6,0c-0.1,0-0.2,0-0.2-0.1c-0.1,0-0.1,0-0.2,0c-0.1,0.1-0.3,0.1-0.4,0c-0.1,0-0.1,0-0.2,0c-0.1,0-0.1,0-0.2,0.1 c0,0,0,0,0,0.1c-0.1-0.1-0.2-0.1-0.3-0.2c0,0.1,0,0.1-0.1,0.1c-0.1,0-0.1,0-0.2,0c-0.2,0-0.2,0.1-0.2,0.2c0,0,0,0.1,0,0.1 c-0.1,0-0.2,0-0.3,0c-0.1,0-0.1-0.1-0.1-0.1c0,0,0-0.1,0-0.1c-0.2,0-0.4,0.1-0.6,0.1c0,0,0,0,0,0.1c-0.1,0-0.2,0-0.3,0 c0,0,0,0.1,0,0.1c-0.2,0-0.3,0-0.5,0c0,0,0,0.1,0,0.1c0,0,0,0.1,0,0.1c0,0.1-0.1,0.1-0.3,0.1c0-0.1,0.1-0.1,0.1-0.1 c-0.2,0-0.4,0-0.5,0.1c0,0-0.1,0-0.1,0.1c-0.1,0-0.2,0-0.3,0c0.1,0,0.1,0,0.2-0.1c-0.2,0-0.3,0-0.5,0c-0.1,0-0.3,0.1-0.4,0.2 C48,41,47.9,41,47.8,41c-0.1,0-0.1,0-0.1,0.1c0,0,0,0.1,0,0.1c0,0,0,0.1,0,0.1c-0.1,0-0.1-0.1-0.1-0.1c-0.1-0.1-0.3-0.1-0.4-0.1 c-0.1,0-0.1,0-0.1,0.1c0.1,0,0.2,0,0.3,0c0,0,0,0,0,0c0,0,0,0,0,0c-0.1,0.1,0,0.1,0,0.1c0,0,0,0.1,0,0.1c-0.1,0-0.1,0.1-0.2,0.1 c0,0,0,0-0.1,0c0.1,0,0.1,0,0.2,0c0.1,0,0.1,0,0.2-0.1c0-0.1,0.1-0.1,0.2-0.1c0,0,0.1,0,0.1,0c0.1,0,0.2,0,0.2,0.1 c0,0,0,0.1,0,0.1c-0.1,0-0.3,0-0.4,0c0,0.1,0.1,0.1,0.2,0.2c0.1,0,0.2,0,0.3,0c0-0.1,0-0.1,0-0.2c0.2,0,0.5,0.1,0.7,0.1 c0-0.1,0-0.1-0.1-0.2c0.2,0,0.3,0,0.5,0c0-0.1,0.1-0.2,0.1-0.3c-0.1,0-0.2,0-0.2,0c0-0.1,0-0.1,0.1-0.1c0.1-0.1,0.2-0.1,0.3-0.1 c0,0,0.1,0,0.1,0c-0.2,0.1-0.1,0.2-0.1,0.3c0.1,0,0.3,0,0.4,0c0,0-0.1-0.1-0.1-0.1c0,0,0,0,0.1,0c0.1,0,0.2,0,0.2,0 c0.1,0,0.1,0.1,0.1,0.1c0,0,0,0.1,0,0.1c0.1,0,0.1,0,0.1,0c0.1,0,0.1-0.1,0.1-0.2c0,0,0.1,0,0.1,0c0.1,0,0.2,0,0.3,0 c0.2,0,0.3,0,0.4-0.1c0.1,0,0.2-0.1,0.3-0.2c0.1,0.1,0.2,0.1,0.3,0.1c0.1,0,0.3,0,0.4,0c0,0,0.1,0,0.1,0c0.1,0,0.1,0,0.1-0.1 c-0.2,0.1-0.4,0.1-0.6,0.1c0-0.1,0-0.1,0.1-0.1c0.1,0,0.2,0,0.3,0c0.3,0,0.6,0,0.8,0c0.1,0,0.1,0,0.2,0c0,0-0.1,0-0.1,0 c-0.1-0.1-0.1-0.1,0-0.2c0,0,0.1,0,0.1,0c0.1,0,0.2,0,0.3,0c0.1,0,0.2,0,0.3,0c0.1,0,0.3,0,0.4-0.1c0.1,0.1,0.3,0.1,0.5,0.1 c0-0.1,0-0.1,0.2-0.2c0.1,0,0.3,0,0.4,0c0.1,0,0.1,0,0.2,0c0.1,0,0.1,0,0.2-0.1c0,0,0,0,0,0c0,0,0,0,0.1,0c0.1,0,0.2,0,0.3-0.1 c0.1,0,0.1-0.1,0.2-0.1c0.1,0,0.3,0,0.4,0c0.2,0,0.3,0,0.5-0.1c0.2,0,0.2-0.1,0.2-0.2c0,0,0-0.1,0-0.1c0,0,0.1,0,0.1,0 c0.2,0.1,0.4,0.1,0.6,0.2c0.2,0.1,0.4,0.1,0.6,0c0.1,0,0.2-0.1,0.4-0.1c0,0,0.1,0,0.1-0.1c0,0,0,0-0.1-0.1c0.1,0,0.2,0,0.3,0 c0,0,0,0.1-0.1,0.1c0.1,0,0.2,0,0.3,0c0,0,0.1-0.1,0.1-0.1c0,0,0,0,0,0c0.2,0,0.3,0,0.4-0.1c0,0,0.1,0,0.1-0.1c0.1,0,0.2,0,0.3,0 c0.1,0,0.2,0,0.4,0c0,0,0-0.1-0.1-0.1c0.2,0,0.3,0.1,0.4,0.1c0,0,0,0,0,0c0-0.1,0.1-0.1,0.2-0.1c0,0,0.1,0,0.1,0 c0.1,0,0.2,0,0.3,0c0.1,0,0.1,0,0.2-0.1c0.1,0,0.1,0,0.2-0.1c0,0,0.1,0,0.1,0c0,0,0,0.1-0.1,0.1c0.2,0,0.3,0,0.4,0 c0.1,0,0.2,0,0.3,0c0.1,0,0.1-0.1,0.1-0.1c0,0,0,0,0-0.1c0.1,0,0.2,0.1,0.3,0.1c0,0,0.1-0.1,0.1-0.1c0.1,0,0.1,0,0.2,0 c0.1,0,0.1,0,0.2,0c0.2,0,0.2-0.1,0.2-0.2c0,0,0-0.1,0-0.1c0.1,0,0.2,0,0.3,0.1c0,0,0,0,0.1,0.1c0,0,0,0,0,0.1 c0.2,0,0.3-0.1,0.5-0.1c0,0,0.1,0,0.1,0c0.1,0,0.1,0,0-0.1c0,0,0,0,0-0.1c0,0,0.1,0,0.1,0c0.1,0,0.2,0,0.3,0.1c0.2,0,0.3,0,0.5,0 c0,0,0.1,0,0.1,0c0,0.1,0,0.1,0.1,0.1c0.1,0,0.2,0,0.3,0c0-0.1,0-0.2,0-0.2c0.1,0,0.2,0.1,0.4,0.1c0-0.1,0-0.2,0.1-0.3 c0.1-0.1,0.2-0.1,0.3-0.1c0,0,0,0.1,0,0.1c0,0,0,0.1,0,0.1c0.3,0,0.6,0,1,0c0,0,0-0.1,0-0.1c0.1,0,0.2,0,0.4,0c0,0,0.1,0,0.1,0 c0.2,0,0.3,0,0.5-0.1c0.6,0,1.2-0.1,1.7-0.1c0.3,0,0.7,0,1-0.2c0.1,0,0.2,0,0.3,0c0,0,0,0,0.1,0c-0.1-0.1,0-0.2,0.1-0.2 c0,0.1,0.1,0.1,0.2,0.1c0.2,0,0.4,0,0.6,0c0.1,0,0.2,0,0.3-0.1c0,0,0.1,0,0.2,0c0.1,0,0.1,0,0.2,0c0.1,0,0.2,0,0.3,0 c0,0,0.1,0,0.1,0c0.1,0,0.1,0,0.2,0c0,0,0.1,0,0.1,0c0,0,0-0.1,0-0.1c0.1,0,0.2,0,0.3,0c0.1,0,0.2-0.1,0.2-0.1 c0.1,0,0.2,0.1,0.3,0.1c0.2,0,0.4,0,0.5,0c0.2,0,0.3,0,0.4-0.1c0.1,0,0.2-0.1,0.3-0.2c0,0,0.1-0.1,0-0.1c0,0,0,0,0-0.1 c0.1,0,0.2,0,0.2,0.1c0,0.1,0.1,0.1,0.2,0.1c0.1,0,0.3,0,0.4,0c0.1,0,0.1,0,0.2,0c0,0,0.1,0,0.1,0c0.1,0,0.1,0,0.2,0 c0.1,0,0.2,0,0.3-0.1c0,0,0.1-0.1,0.1-0.1c0.1,0,0.1,0,0.2,0c0,0,0.1,0,0.1,0.1c0,0,0.1,0.1,0.1,0.1c0.1,0,0.1,0,0.2,0 c0.1,0,0.3,0,0.4,0c0,0,0-0.1,0-0.1c0,0,0.1,0,0.1,0c0.3,0,0.6,0,0.8,0c0.1,0,0.2,0,0.3,0c0,0,0.1,0,0.1,0c0,0,0-0.1-0.1-0.1 c0,0-0.1,0-0.1-0.1c0,0,0,0,0,0c0.1,0,0.1,0,0.2,0c0,0,0,0.1,0,0.1c0.1,0,0.1,0,0.2,0c0.1,0,0.2,0,0.2,0c0,0,0.1,0,0.1,0 c0.4,0,0.9,0,1.3,0c0.2,0,0.4,0,0.5-0.2c0,0,0,0,0.1,0c0.1,0,0.2,0.1,0.3,0.1c0.2,0,0.3,0,0.5,0c0.2,0,0.4,0,0.5,0 c0.1,0,0.1,0,0.2,0c0.1,0,0.2,0,0.2,0c0.1,0,0.2,0,0.4,0c0.3,0,0.6,0,0.8-0.1c0,0,0,0,0,0c0,0,0-0.1-0.1-0.1c0.2,0,0.3-0.1,0.5,0 c0,0,0,0.1-0.1,0.1c0.1,0,0.2,0,0.3,0c0.1,0,0.1-0.1,0.2-0.1c0,0,0.1,0,0.1,0c0,0.1,0,0.1,0.2,0.1c0.1,0,0.2,0,0.3,0 c0.1,0,0.1,0,0.1-0.1c0,0,0-0.1,0-0.1c0.1,0,0.2,0,0.3,0c0.1,0,0.2,0.1,0.2,0.1c0,0,0,0,0-0.1c0.2,0,0.3,0,0.5,0c0,0,0-0.1,0-0.1 c0.1,0,0.2,0,0.4,0c0.2,0,0.4,0,0.6,0c0.1,0,0.2,0,0.3-0.1c0,0,0,0,0,0c0,0.1,0.1,0.1,0.1,0.2c0.1,0,0.2-0.1,0.3-0.1 c0.2,0,0.4,0,0.6,0c0.3,0,0.5,0,0.8,0c0.1,0,0.3,0,0.4-0.1c0.1-0.1,0.2-0.1,0.3-0.1c0.1,0,0.1,0,0.2,0.1c0.1-0.1,0.1-0.1,0.2-0.1 c0,0,0,0,0,0c0,0,0,0.1,0,0.1c0,0,0.1,0,0.1,0c0,0,0.1,0,0.1,0c0.3,0,0.6,0,0.8,0.1c0,0,0,0,0-0.1c0,0,0.1,0,0.1,0 c0.1,0,0.3,0,0.4,0c0.1,0,0.2,0,0.3,0c0.3,0,0.6,0,0.9-0.1c0.2,0,0.3,0,0.5,0c0.1,0,0.1,0,0.1-0.1c-0.1,0-0.2,0-0.3,0 c0.1-0.1,0.2-0.1,0.3-0.2c0.1,0,0.1,0,0.2,0c0,0,0,0.1,0.1,0.1c0,0.1,0.1,0.1,0.2,0.1c0.1,0,0.3,0,0.4,0c0,0,0.1,0,0.1,0 c0,0,0.1,0,0.1,0c0.2,0,0.3,0,0.5,0c0.2,0,0.3,0,0.5,0c0.2,0,0.5,0,0.7,0c0,0,0.1,0,0.1,0c0,0,0-0.1,0-0.1c0,0,0,0,0,0 c0.2,0,0.5,0,0.7,0c0.1,0,0.3,0,0.4,0c0.1,0,0.1,0,0.1-0.1c0-0.1,0-0.1,0.1-0.1c0,0,0,0,0,0c0.1,0,0.1,0,0.2,0.1c0,0,0,0.1,0,0.1 c0,0,0.1,0,0.1,0c0,0,0.1,0,0.1,0c0.4,0,0.7,0,1.1,0c0,0-0.1-0.1-0.1-0.1c0,0,0.1,0,0.1,0c0.2,0,0.4,0.1,0.6,0.1 c0.1,0,0.1,0,0.2,0c0,0,0-0.1,0-0.1c0,0,0.1,0,0.1,0c0.2,0,0.4,0,0.6,0c0.2,0,0.4,0,0.5,0c0.1,0,0.2-0.1,0.2-0.2c0,0,0-0.1,0-0.1 c0.1,0,0.2,0,0.2,0.1c0,0,0,0,0,0c0,0,0.1,0.1,0.1,0.1c0.1,0,0.3,0,0.4,0c0,0,0-0.1,0-0.1c0-0.1,0-0.1,0.1-0.1c0.1,0,0.2,0,0.3,0 c0,0,0.1,0,0.1,0.1c0,0.1,0.1,0.1,0.2,0.1c0.2,0,0.3,0,0.5,0c0.2,0,0.4,0,0.6-0.1c0.1,0,0.3,0,0.4,0c0.1,0,0.2,0,0.2,0 c0.1,0,0.2,0,0.2-0.1c0.1,0,0.2,0,0.3,0.1c0.1,0,0.3,0,0.4,0c0.3,0,0.6,0,0.9,0c0.2,0,0.3,0,0.4-0.1c0,0,0.1-0.1,0.1-0.1 c0.1,0,0.3,0.1,0.4,0.1c-0.1,0-0.1,0-0.2,0c0.1,0,0.1,0.1,0.2,0.1c0.1-0.1,0.2-0.1,0.3-0.2c0.1,0.1,0.3,0.1,0.4,0 c0.1,0,0.3,0,0.4,0c0,0,0.1,0,0.1,0c0.1,0,0.2,0,0.3,0c0.1,0,0.1,0,0.2,0c0.1,0,0.2,0,0.3,0c0,0,0,0,0.1,0c0-0.1,0-0.1,0.1-0.1 c0.1,0,0.2,0,0.3-0.1c0.1,0,0.2,0,0.3,0c-0.1,0-0.2,0.1-0.3,0.1c0,0,0,0.1,0.1,0.1c0,0,0.1,0,0.1,0c0.5,0,0.9,0,1.4,0 c0.1,0,0.3,0,0.4,0c0.1,0,0.1,0,0.2,0c0,0,0.1,0,0-0.1c0,0,0,0,0,0c0,0,0,0,0.1,0c0.1,0.1,0.2,0.1,0.3,0.1c0,0,0.1,0,0.1,0 c0.1,0,0.1,0,0.2,0c0.1,0,0.1,0,0.2,0c0.2,0,0.3,0,0.5,0c0.1,0,0.2,0,0.2-0.1c0.1,0,0.1,0,0.2,0c0.1,0,0.1,0,0.2,0 c0.1,0,0.1,0,0.1,0.1c0,0,0.1,0,0.1,0c0.1-0.1,0.2-0.1,0.3,0c0,0,0.1,0,0.2,0c0.3,0,0.6,0,1,0c0,0,0.1,0,0.1,0c0.1,0,0.1,0,0.2,0 c0.1,0,0.1,0,0.2,0c0.2,0,0.3,0,0.5,0c0,0,0.1,0,0.1,0c0,0,0,0,0-0.1c0.1,0,0.3,0,0.4,0c0.1,0,0.2,0,0.3,0c0.1,0,0.1,0,0.1,0.1 c0.1,0,0.1,0,0.2,0c0.2,0,0.3,0,0.5,0c0.1,0,0.1,0,0.2,0c0.5,0,1.1,0,1.6,0c0.2,0,0.3,0,0.5-0.1c0,0,0,0,0,0 c0.1,0.1,0.1,0.1,0.2,0.1c0,0,0,0,0.1,0c0.1,0,0.1,0,0.2,0c0,0,0,0.1-0.1,0.1c0.2,0,0.5,0,0.7,0c0.1,0,0.3,0,0.4,0 c0.1,0,0.1,0,0.2-0.1c0,0,0.1,0,0.1,0c0.1,0,0.1,0,0.2,0c0,0.1,0,0.1,0,0.2c0.2,0,0.3,0,0.4,0c0-0.1,0-0.1,0-0.2 c0.1,0,0.2,0,0.3,0c0,0,0,0.1,0,0.1l0,0c0.1-0.1,0.3,0,0.4,0c0,0.1,0,0.1,0,0.2c0.3,0,0.5,0,0.8,0c0,0,0-0.1,0.1-0.1 c0.2,0,0.4-0.1,0.6-0.1c0,0,0,0,0,0c-0.1,0.1-0.1,0.1-0.2,0.2c0.1,0,0.2,0,0.2,0c0.1,0,0.1,0,0.1-0.1c0,0,0.1,0,0.1,0 c0.1,0,0.2,0,0.3,0c0.1,0,0.1,0,0.2,0c0,0,0.1,0,0.1-0.1c0,0,0,0.1,0,0.1c0.2,0,0.3,0,0.4,0c0.1,0,0.2,0,0.4,0c0,0,0.1,0,0.1,0 c0-0.1,0-0.1,0.1-0.2c0.1,0,0.1,0,0.2,0c0.1,0,0.2,0.1,0.2,0.1c0.1,0,0.2,0.1,0.3,0.1c0.3,0.1,0.5,0.1,0.8,0.1 c0.1,0,0.2,0,0.3-0.1c0,0,0,0,0,0c0,0,0,0,0,0c0.1,0,0.2,0.1,0.3,0.1c0.1,0.1,0.3,0.1,0.5,0.1c0.1,0,0.2,0,0.2-0.1 c0,0,0-0.1,0-0.1c0.2,0.1,0.4,0,0.6-0.1c0,0,0,0,0,0c-0.1,0.1-0.1,0.2-0.2,0.3c0.3,0,0.5,0,0.7,0.1c0.3,0,0.5,0,0.8,0 c0.1,0,0.3,0,0.4,0c0.1,0,0.2,0,0.4,0c0.1,0,0.1,0,0.2,0c0.4,0,0.7,0,1.1,0c0.1,0,0.1,0,0.2,0c0,0,0.1,0,0.1,0c0.1,0,0.1,0,0.2,0 c0.1,0,0.1,0,0.2-0.1c0,0,0,0,0,0c0,0,0.1,0,0.1,0c0.1,0.1,0.3,0.1,0.5,0.1c0.1,0,0.2,0,0.4,0c0,0,0.1,0,0.1,0c0,0,0,0,0,0 c0,0.1,0.1,0.1,0.2,0.1c0,0,0.1,0,0.1,0c0.1,0,0.2,0,0.3,0c0.1,0,0.1,0,0.2,0c0,0,0-0.1,0-0.1c0.1,0,0.1,0,0.2,0 c0.1,0.1,0.1,0.1,0.2,0.1c0.2,0,0.3,0,0.5,0.1c0,0,0.1,0,0.1,0c0,0,0-0.1,0-0.1c0,0,0.1,0,0.1,0c0.1,0,0.3,0,0.4,0c0,0,0,0,0,0 c0,0,0,0,0,0.1c0.2,0,0.4,0,0.6,0c0,0-0.1,0.1-0.1,0.1c0.2,0,0.3,0,0.5,0c0,0,0-0.1,0-0.1c0.1,0,0.3,0,0.4,0.1 c0.1,0,0.2,0.1,0.3,0.1c0.2,0,0.3,0,0.5,0c0.3,0,0.7,0,1,0c0.1,0,0.1,0,0.2,0c0,0,0,0.1-0.1,0.1c0.1,0,0.2,0,0.2,0 c0-0.1,0-0.1,0-0.2c0.1,0,0.2,0,0.3,0c-0.1-0.1-0.2-0.3-0.3-0.4c0.1,0,0.2,0,0.3,0c0,0,0,0.1-0.1,0.1c0.1,0,0.3-0.1,0.4-0.1 c0.1,0,0.2-0.1,0.2-0.2c0,0,0,0,0,0c0,0,0,0,0,0C144.4,36.6,144.3,36.6,144.1,36.6z"></path> <path class="st0" d="M46.6,41.4c0.1,0,0.2,0,0.3,0c0,0,0-0.1,0-0.1c-0.1,0-0.2,0-0.3,0C46.6,41.3,46.6,41.4,46.6,41.4z"></path> <path class="st0" d="M125,36.3C125,36.3,125,36.3,125,36.3c0.1,0,0.2,0,0.3,0c0,0,0,0,0,0C125.2,36.3,125.1,36.3,125,36.3z"></path> <path class="st0" d="M47.7,40.9c-0.2,0-0.3,0-0.3,0.1c0.1,0,0.2,0,0.3,0C47.7,41,47.7,40.9,47.7,40.9z"></path> <path class="st0" d="M49.4,40.5c0,0-0.1,0.1-0.1,0.1c0.1,0,0.2,0,0.3,0C49.5,40.5,49.5,40.5,49.4,40.5z"></path> </g> <path class="st0" d="M91,3.6h-8c-0.5,0-0.9,0.4-0.9,0.9v0.6c0,0.2,0.1,0.3,0.3,0.4L87,8.2c0.6,0.3,0.6,1.2,0,1.5l-4.6,2.7 c-0.2,0.1-0.3,0.3-0.3,0.4v20.6c0,0.5,0.4,0.8,0.8,0.8h8c0.5,0,0.8-0.4,0.8-0.8V4.4C91.8,4,91.5,3.6,91,3.6z"></path> </g> <path class="st0" d="M11.9,4.5c-0.2,0.1-0.2,0.1-0.2,0.1c0,0,0,0,0,0C11.6,4.5,11.8,4.4,11.9,4.5C11.8,4.4,11.9,4.4,11.9,4.5 C11.9,4.4,11.9,4.4,11.9,4.5C12,4.4,12,4.4,11.9,4.5z M11.6,4.2C11.6,4.2,11.6,4.2,11.6,4.2c0,0-0.1,0-0.1,0.1c0,0,0,0,0,0 C11.5,4.3,11.5,4.3,11.6,4.2C11.6,4.3,11.6,4.3,11.6,4.2z M12.2,4c0.1,0,0.1,0,0.1,0c0,0,0.1,0,0.1-0.1c0,0,0.1,0,0.1-0.1 c0,0,0,0,0,0c0,0-0.3,0.1-0.6,0.3L12,4.1C12.1,4,12.1,4,12.2,4z M11.8,4.2C11.8,4.2,11.8,4.2,11.8,4.2c0,0,0,0,0.1-0.1 c0,0,0.1,0,0.1-0.1c0,0,0,0,0,0c0,0,0,0,0,0c-0.3,0.1-0.6,0.3-0.7,0.3C11.4,4.4,11.8,4.2,11.8,4.2C11.8,4.2,11.8,4.2,11.8,4.2z M12.2,4.2C12.2,4.2,12.2,4.2,12.2,4.2C12.2,4.1,12.2,4.1,12.2,4.2c0.1-0.1,0.1-0.1,0.1-0.1c0,0,0,0,0,0c0,0,0,0,0,0 C12.2,4.1,12.1,4.2,12.2,4.2C12.1,4.2,12.1,4.2,12.2,4.2c-0.1,0-0.1,0-0.1,0.1C12.1,4.2,12.2,4.2,12.2,4.2z M11.3,4.8 C11.3,4.8,11.3,4.8,11.3,4.8C11.3,4.8,11.2,4.9,11.3,4.8C11.1,4.9,11.1,5,11,5c0,0,0,0,0,0C11.1,5,11.2,4.9,11.3,4.8 C11.3,4.9,11.3,4.8,11.3,4.8z M11.5,5.2C11.5,5.2,11.5,5.2,11.5,5.2C11.4,5.2,11.4,5.2,11.5,5.2c-0.2,0-0.2,0-0.3,0 c-0.1,0-0.4,0.2-0.4,0.2c0,0,0,0,0,0c0,0,0.1,0,0.1,0c0,0,0,0,0,0.1c0,0-0.2,0.2-0.3,0.2c0,0,0,0,0,0c0-0.1,0.1-0.1,0.1-0.1 c0,0-0.2,0.1-0.2,0.2c0,0,0,0,0,0c0,0,0,0.1,0,0.1c0,0,0,0,0,0.1c0,0,0,0.1,0,0.1c0,0,0,0,0,0c0.1,0.1,0.6-0.2,0.7-0.4 c0,0,0.1-0.2,0.1-0.2c-0.1,0-0.1,0-0.2,0c0.1-0.1,0.3-0.1,0.4-0.2C11.3,5.3,11.5,5.2,11.5,5.2z M10,5.2c0.2-0.1,0.4-0.3,0.6-0.4 c-0.2,0.1-0.2,0.1-0.2,0.2l0.7-0.4c0,0,0,0,0.1-0.1c0,0,0,0,0,0C11,4.6,10,5.1,9.7,5.3C9.9,5.3,9.9,5.2,10,5.2 C10,5.2,10,5.2,10,5.2z M10,6.8C10,6.8,10,6.8,10,6.8C10,6.8,10,6.8,10,6.8C9.9,6.9,9.8,7,9.7,7.1C9.5,7.2,9.5,7.2,9.4,7.2 c0,0,0,0,0,0c0,0,0,0,0.1,0c0.1,0,0.1,0,0.1,0c0,0,0,0.1,0,0.1c0,0,0.1,0,0.1,0c0.3-0.1,0.4-0.2,0.4-0.2c0,0,0-0.2-0.1-0.2 C10.1,6.8,10,6.8,10,6.8z M10.4,5.5C10.4,5.5,10.4,5.5,10.4,5.5c-0.2,0.1-0.3,0.2-0.3,0.2c0,0,0,0,0,0c0,0,0,0,0,0c0,0,0,0,0,0 c0,0,0,0.1,0,0.1c0.1,0,0.2-0.2,0.2-0.2C10.4,5.5,10.5,5.5,10.4,5.5z M17.6,2.5c-0.1,0.1-0.4,0.2-0.5,0.3c0,0-0.8,0.2-0.8,0.3 c-0.2,0.3,0.3,0.4,0.3,0.4c1.3-0.1,1.3-0.1,1.4,0c0,0,0.6,0.7,0.4,1.1c-0.1,0.2-0.1,0.2-0.1,0.2c0,0.1,0.1,0.1,0.1,0.2 c0,0.1,0,0.2,0.1,0.3c0.2,0,0.3-0.2,0.5-0.1c0.4,0.2,0.2,0.5,0.2,0.5c-0.1,0.2-0.4,0.2-0.5,0.4c-0.1,0.1-0.1,0.4-0.1,0.6 c0.3,1.1,2.2,2.9,2.9,2.2c0.1-0.1,0.4-1.3,0.4-1.3c0-0.2-0.1-0.3,0-0.5C22,6.7,22,6.7,22.3,6.6c1-0.3,1-0.3,1-0.5 c0-0.2,0-0.3,0.2-0.4c0.4-0.2,0.9-0.3,1.3-0.5c0.2-0.1,0.4-0.2,0.5-0.3c0,0,0.1-0.1,0-0.2c-0.1-0.2-0.4-0.3-0.5-0.5 c-0.1-0.1-0.1-0.3-0.1-0.4c-0.1-0.2,0-0.2,0-0.3c0.1-0.1,0-0.2-0.2-0.3c-0.8-0.5-0.8-0.5-0.9-0.6c0,0,0,0,0,0c0,0,0,0,0,0 c-0.2-0.2-0.7,0-0.8-0.5c0,0-0.1,0-0.1,0c0,0,0,0,0-0.1c0,0,0,0,0,0c-0.1,0-0.4,0-0.4,0c-0.2,0-0.5,0-0.5,0c-0.2,0-0.3-0.1-0.5-0.1 c-0.2,0-0.8,0-1,0c-0.4,0-0.4,0-0.4,0.1c0,0,0,0,0,0c-0.4,0-0.4,0-0.6,0.1h0c0,0,0,0,0,0c0,0,0,0,0,0c0,0,0,0,0,0 c0.2,0,0.2,0,0.3,0c0,0,0,0-0.3,0c-0.1,0-0.2,0-0.3,0c-1,0.1-1.7,0.4-1.7,0.4C17.5,2.5,17.5,2.5,17.6,2.5z M13.9,6.7 c0.1-0.1,0-0.2-0.1-0.2c0,0-0.3,0.1-0.3,0.2c0,0.1,0.1,0.3,0.1,0.3C13.7,7.1,13.9,6.7,13.9,6.7z M15.9,2.7c-0.1,0-0.1,0-0.2,0.1 c0.2,0,0.9-0.2,1-0.3c-0.4,0.1-0.8,0.3-1.1,0.3c-0.1,0-0.1,0-0.1,0.1c0,0,0,0.2-0.1,0.2c-0.2-0.1-0.7,0.2-0.7,0.3c0,0,0.1,0,0.1,0 c0,0,0,0,0,0c0.1,0,0.1,0,0.3-0.1c-0.4,0.2-0.4,0.2-0.4,0.1c-0.3,0-0.3,0.1-0.3,0.2c-0.2,0.1-0.4,0.1-0.5,0.3c0,0,0,0,0,0 c0,0,0.1,0,0.4-0.1c0.2,0,0.4-0.2,0.6-0.1c0,0,0,0-0.1,0.1c0.2,0,0.7-0.2,0.6-0.3c0,0,0,0-0.1,0c0-0.1,0.4-0.3,0.4-0.3 c0.5-0.1,0.6-0.3,0.6-0.3c0,0,0,0,0,0c0.4-0.1,0.6-0.2,0.7-0.3c0,0,0,0-0.1,0c0,0,0.9-0.3,1-0.3c-0.2,0-0.3,0-0.4,0 c0.2-0.1,0.5-0.1,0.7-0.2c-0.2,0-0.6,0-0.6,0c0,0-0.9,0.2-1.1,0.2c0,0,0,0,0,0c0,0-0.1,0-0.2,0c-0.1,0-0.8,0.2-0.9,0.3 C15.5,2.8,15.5,2.8,15.9,2.7z M12.2,4.3C12.2,4.3,12.2,4.3,12.2,4.3c-0.1,0.1-0.1,0.1-0.2,0.2c0,0,0-0.1,0-0.1c0,0,0,0,0,0 c0,0-0.1,0-0.2,0.1c0,0,0,0,0,0c0,0,0,0,0,0c-0.1,0.1-0.2,0.1-0.3,0.2c0,0,0,0,0,0c0,0,0,0,0,0c0,0,0,0,0.3-0.1 c-0.1,0.1-0.3,0.2-0.4,0.3c0,0,0,0,0,0c0,0,0.3-0.1,0.4-0.2c0,0,0,0,0.2-0.2c0,0,0,0,0,0c0,0,0,0,0,0c0.1-0.1,0.1-0.1,0.3-0.3 c0,0,0.1,0,0.1-0.1c0,0,0,0,0,0C12.6,4.2,12.3,4.3,12.2,4.3C12.2,4.3,12.2,4.3,12.2,4.3z M15.5,6.8c0.1,0,0.5,0.4,0.5,0.4 c0.1,0.1,0.2,0.2,0.2,0.2c0.2,0,0.5-0.8,0.5-0.8c0,0,0-0.1,0-0.1l-1.4-0.3c0,0,0.1-0.1,0.4-0.2c0.1-0.1,0.2-0.1,0.2-0.1 c0-0.1-0.5-0.6-0.8-0.6c-0.1,0-0.2,0-0.3,0c-0.1-0.1-0.1-0.2-0.2-0.3c-0.1,0-0.4,0.1-0.7,0.2c-0.2,0.1-0.2,0.1-0.3,0.1 c0,0,0-0.1,0-0.4c-0.1,0-0.4,0-0.5,0c-0.4,0.1-1.7,1.2-1.5,1.4c0.2,0.2,1.1,0,1.2-0.1c0-0.1,0-0.1,0.3-0.2c0.3,0,0.3-0.1,0.4-0.2 c0.1,0,0.3,0.2,0.3,0.2C14,6.1,14,6.2,14.1,6.3c0.1,0.1,0.4,0.1,0.4,0.4c0,0-0.1,0.6-0.9,0.9c-0.3,0.1-0.5,0.1-0.8,0.2 c-0.1,0.1-0.1,0.2-0.1,0.3c0,0,0.2,0.1,0.6-0.1c0.3-0.1,0.3-0.1,0.9,0.2c0,0.1,0,0.1-0.3,0.1c0.1,0.1,1.2,0.3,1.4,0.2 c0,0,0,0-0.1-0.1c0,0,0,0-0.5-0.4c0.4,0,0.5,0.1,0.7,0.2c0,0,0.1,0,0.1,0c0.1,0,0.3-0.5,0.2-0.6c-0.2-0.2-0.6-0.2-0.7-0.5 C15.1,6.9,15.5,6.8,15.5,6.8z M10.9,4.7c0,0,0.1,0,0.2-0.1c0,0,0,0,0,0c0,0,0,0,0,0c0,0,0,0,0,0C11,4.6,10.9,4.7,10.9,4.7z M19,5.5 C19,5.5,19,5.4,19,5.5C19,5.4,19,5.4,19,5.3c0,0-0.1,0-0.1-0.1c0,0,0,0,0,0c0,0,0,0,0,0c0,0,0,0-0.1,0c-0.1,0-0.4,0.2-0.2,0.3 c0,0,0.1,0,0.2,0L19,5.5z M14.5,4.7C14.5,4.7,14.5,4.7,14.5,4.7c0,0-0.3-0.1-0.5-0.1c-0.2,0-0.1,0.2-0.1,0.2 C14,5,14.5,4.8,14.5,4.7z M13,3.7c-0.1,0-0.2,0.1-0.2,0.1c0,0,0,0,0,0C12.9,3.8,13,3.8,13,3.7c0,0.1,0,0.1,0,0.1 c0,0,0.2-0.1,0.2-0.1c0.1,0,0.2-0.2,0.2-0.2c0,0,0,0-0.1,0c0,0,0.1,0,0.1-0.1c0,0,0,0,0,0C13.2,3.5,13,3.6,13,3.7 c0,0,0.1-0.1,0.1-0.1C13.1,3.7,13.1,3.7,13,3.7z M12.1,4.6C12.1,4.7,12.1,4.7,12.1,4.6c0.1,0.1,0.2,0.1,0.3,0 c0.1-0.1,0.2-0.2,0.1-0.2c0,0,0,0,0,0C12.5,4.4,12.2,4.6,12.1,4.6z M14,3.6C14,3.6,14,3.6,14,3.6C14,3.6,14,3.6,14,3.6 C14,3.6,14,3.6,14,3.6c-0.1,0-0.2,0.1-0.3,0.1c-0.1,0-0.2,0.1-0.3,0.1c-0.1,0-0.1,0-0.1,0c0,0,0.3,0,0.5-0.1 C13.8,3.7,13.9,3.7,14,3.6C14,3.6,14,3.6,14,3.6z M13.3,3.8C13.3,3.8,13.3,3.8,13.3,3.8c0,0,0.3-0.1,0.4-0.2c0,0,0,0,0,0 c0,0,0,0,0,0c0,0,0,0,0,0c0,0,0,0,0,0c0,0,0,0,0,0c0,0,0,0,0,0c0,0,0,0,0,0c-0.1,0-0.1,0.1-0.2,0.2C13.3,3.7,13.3,3.7,13.3,3.8z M14,3.3c0.2-0.1,0.2-0.1,0.2-0.1c0,0,0,0,0,0C14.2,3.2,14,3.2,14,3.3c-0.2,0-0.1,0-0.1,0C13.9,3.3,13.9,3.3,14,3.3z M14.4,3.2 c0.1,0,0.1,0,0.2,0c0,0,0,0,0,0C14.6,3.2,14.5,3.2,14.4,3.2c-0.2,0.1-0.3,0.2-0.3,0.2c-0.1,0-0.1,0.1,0,0.1c0,0,0,0,0.2,0 c0.1,0,0.1,0,0.2,0c0.2-0.1,0.3-0.2,0.4-0.2c0.1,0,0.2-0.1,0.3-0.1c0,0,0,0,0,0c0,0,0,0-0.1,0c0,0,0,0,0,0c0,0,0,0,0,0 c0.1-0.1,0.1-0.1,0.1-0.1c0,0,0,0,0,0c0,0,0.1,0,0.1-0.1c0,0,0.1,0,0.1-0.1c0,0,0,0,0,0c-0.2,0-0.7,0.3-0.8,0.3c0,0,0.1,0,0.1,0 C14.6,3.1,14.5,3.1,14.4,3.2c-0.1,0-0.2,0.1-0.2,0.1C14.2,3.2,14.4,3.2,14.4,3.2z M12.7,4.6c0,0,1.6-0.2,2-0.6 c0.1-0.1-0.2-0.1-0.2-0.1c-0.1,0-0.8,0.2-1,0.3c-0.1,0.1-0.2-0.1-0.2-0.1c0,0,0,0,0.1,0c0.2-0.1,0.1-0.2,0.1-0.2 c-0.1,0-0.1,0-0.2,0c-0.1,0-0.1,0-0.2,0c0,0-0.1,0-0.1,0c0,0-0.2,0.1-0.2,0.2c0,0,0,0,0.1,0c0.1,0,0.2-0.1,0.2,0 c0,0-0.1,0.2-0.1,0.2c-0.1,0.1-0.2,0.1-0.3,0.2C12.6,4.6,12.6,4.6,12.7,4.6z M43.5,26.2c0,0,0-0.1,0-0.1c0,0.7-0.1,1-0.1,1.2 l-0.1,0.5l0,0.1c0,0.1,0,0.2,0,0.2c0,0,0-0.1,0-0.1c0,0.2,0,0.2-0.6,1.5c-0.1,0-0.1,0-0.3,0.1c-0.1-2.1,0.5-4.1,0-6.2 c0,0.1-0.1,0.2-0.1,0.2c-0.1-0.4-0.1-0.4-0.1-0.5l0.2,2.7c0.1,0.9-0.1,1.7-0.1,2.6c0,0.3,0.1,0.7,0,1c-0.1,0.9-0.1,0.9-0.1,1 c0.2,0,0.2,0,0.3,0c-0.8,2.6-2.4,3.3-3,4.8c-0.1,0.2-0.8,1.7-1.6,2.5c-0.3,0.3-0.8,0.5-1.1,0.8c-0.3,0.3-0.5,0.7-0.7,0.9l-1.2,1 l-1,0.7c-0.2,0.2-1,0.7-1.6,0.5c0.1-0.3,0.2-0.4,0.3-0.5c0.2-0.2,0.2-0.2,1.4-2.4c0.3-0.6,0.3-1.2,0.7-1.8c0.4-0.6,0.9-1.1,1.2-1.7 c0.6-1.4,0.4-2.1,0.3-2.6c-0.2-0.8,0.7-1.3,0.4-2.1c-0.2-0.1-0.4,0-0.6-0.1c-0.2-0.2,0-0.4-0.2-0.6c0,0-0.1,0-0.1-0.1 c-1-0.1-1.9,0.3-2.9,0.4c-0.2,0-1.2-1-1.4-1.3c-0.3-0.7-0.7-1.4-1-2.1c-0.2-0.5,0.4-0.7,0.4-1.1c0-0.5-0.3-0.9-0.3-1.4 c0,0,1.1-1.9,1.2-2.1c0-0.1,0.5-0.4,0.7-0.5c0.3-0.1,0.3-0.1,0.3-1.1c0-0.1,0-0.2,0-0.3c0.2-0.3,0.5-0.3,0.7-0.5 c0.1-0.2,0-0.5,0.2-0.6c0,0,0.1-0.1,0.1-0.1c0,0,0,0,0,0c0.2,0.3,0.3,0.3,0.5,0.2c0,0,0,0,0.1,0c0.8,0.3,1.4-0.6,2.2-0.3 c0-0.1,0.1-0.1,0.2-0.2c0.6,0.1,0.6,0.1,0.8,0c0.1,0.1,0.1,0.1,0.3,0.2c0.1,0.9,0.1,0.9,0,1.1c0,0.1-0.1,0.2-0.1,0.2 c0.1,0.2,1.8,1.8,2,1.9c0,0,0.1,0,0.1,0c0.1-0.3,0-0.6,0.1-0.8c0.8,0,0.7,1.1,1.4,1.2c0,0,0.1-0.1,0.2-0.1c0.1,0.2,0.1,0.3,0.3,0.3 c0.2-0.4,0.2-0.7,0.1-2.2c-0.1,0-0.1-0.1-0.2-0.1c0,0.1,0,0.2,0,0.2c-0.2-0.1-0.2-0.4-0.4-0.5c0,0,0,0.1,0,0.1c0,0-0.1,0.1-0.1,0.1 C41.1,19.7,41,19,41,18.5c0,0-0.1,0-0.1,0c0-0.1,0-0.2,0-0.3c0.1-0.1,0.3,0,0.4-0.1c0,0-0.1-0.1-0.1-0.2c0.1,0,0.2,0,0.2,0.1 c0,0,0.1-0.1,0.1-0.2c0.5-0.1,0.5,0.6,0.8,0.8c0,0,0.1,0,0.1-0.1c0-0.8-0.6-1.4-0.9-2.1c0,0,0-0.1,0.1-0.1 c-0.1-0.3-0.1-0.3-0.1-0.4c0,0,0-0.1,0.1-0.1c0-0.1-0.1-0.2-0.2-0.2c-0.1,0.3,0.5,0.7,0.1,1c-0.1-0.1-0.1-0.3-0.2-0.4 c0-0.2,0-0.2,0-0.4c-0.1-0.1-0.2-0.1-0.3-0.2c0,0,0-0.1,0-0.1c-0.1,0-0.1,0-0.2,0c-0.1,0.8,0.5,1.5,0.4,2.3c0,0-0.1,0-0.1,0 c0,0.1-0.1,0.2-0.1,0.2c-0.1-0.3-0.4-0.5-0.6-0.5c-0.1,0.1-0.1,0.1,0.1,1c0.1,0.3,0.2,0.5,0.2,0.8c0,0.1,0,0.2,0,0.2L40,18.5 C39.5,17,39.5,17,39.5,17l-1.6-1.9c-0.1,0-0.1,0.1-0.2,0.1c0.7,1.5,0.9,1.6,1.2,1.7c0,0,0,0.1,0,0.1c0.6,0.7,0.6,0.7,0.6,0.9 c0-0.1-0.1-0.1-0.1-0.2c0,0-0.1,0-0.1,0c0,0.1,0,0.1,0.1,0.5c-0.1,0.1-0.1,0.3-0.2,0.4c0,0-0.1,0-0.1,0c0,0.2,0.1,0.4,0,0.6 c0,0-0.4-0.4-0.6-0.6c0.7-0.1,0.8-0.1,0.6-0.5c-0.2-0.6-1.8-2.5-1.9-2.5c-0.3-0.3-0.5,0-0.7,0.3c-0.2,0-0.4-0.3-0.6-0.1 c-0.1,0-0.1,0-0.1,0.7c-0.5,0.2-0.5,0.2-0.7,1c0.2,0.3,0.1,0.7-0.2,0.8l-1.2,0.4c0,0,0,0-0.1-0.4c-0.2-0.1-0.3,0-0.8,0 c0-0.1,0-0.1,0.1-0.7c-0.3-0.1-0.3-2.1-0.3-2.1c0-0.1-0.1-0.1-0.1-0.2c0.7,0.1,1.5,0.3,2.2,0.4c0,0,0.3-1.6-1.3-2.1 c0,0,0.1,0,0.1-0.1c-0.1-0.1-0.2-0.1-0.2-0.2c0,0,0-0.1,0-0.1c0.3,0,0.3,0,0.4,0.1c0.1,0,0.2-0.1,0.2-0.1c0,0,0-0.1,0-0.1 c0-0.1-0.1-0.1-0.1-0.2C34,13,34,13,34.4,13.1c0-0.1,0-0.2,0.1-0.2c0.1,0,0.2-0.1,0.2-0.1c-0.1-0.3-0.1-0.3-0.1-0.3 c0.2-0.1,0.2-0.1,0.5-0.1c0,0,0-0.1,0.1-0.1c-0.1-0.3-0.2-0.5-0.2-0.6c0.1-0.1,0.1-0.1,0.4-0.1c0,0,0-0.1,0.1-0.1 c0.1,0,0.2,0,0.2,0c0.1,0,0.1,0,0.1,0c0,0,0,0-0.1-0.2c-0.3-0.4-0.8-1.2-0.8-1.2c-0.1-0.2,0.3-0.2,0.3-0.2c0.1,0,0.3,0.5,0.3,0.6 c0,0.3,0.2,0.6,0.4,0.8c0.2,0.3,0.3,0.3,0.4,0.3c0.3,0,0.4,0.1,0.5,0.1l-0.3-0.1c0.2,0,0.4,0.1,0.5,0.2c0,0,0.1,0,0.1-0.1 c0-0.1,0-0.1,0.7,0l0,0c0,0,0,0,0,0c0,0,0-0.1,0-0.1c0,0,0,0,0.2,0c0-0.1-0.2-0.4-0.2-0.4c0,0-0.3-0.6-0.3-0.6c0,0,0,0,0,0 c0.3,0,0.3,0.3,0.5,0.3c-0.2-0.4-0.5-0.6-0.8-1c0.2,0,0.4,0.1,0.6,0.2c0,0-0.1-0.1-0.1-0.1c0,0,0,0,0,0c0.1,0,0.1,0.1,0.2,0.1 c-0.4-0.3-0.9-0.3-1.3-0.6C36,8.8,36,8.8,35.6,7.8c0,0,0,0,0,0c0-0.1-0.6-0.5-0.8-0.6c0,0,0,0,0,0c0,0,0,0,0,0.1c0,0,0,0,0.5,0.5 c0.2,0.2,0,0.4,0.1,0.6C35.7,9,35.7,9,36,9.2c0.3,0.2,0.3,0.3,0.3,0.4c-0.1,0.1-0.2,0.2,0.1,0.7c0.1,0.2,0.1,0.7,0.1,0.7 c-0.2,0-0.3-0.2-0.4-0.3c-0.2-0.4-1.3-1.5-1.4-1.6c0,0.2,0.2,0.5-0.1,0.6c-0.6,0.3-1.3-1.3-1.3-1.4c-0.1-0.1-0.1-0.2,0-0.2 c0.3-0.2,0.3-0.2,0.3-0.7c0,0,0-0.2-0.3-0.7c0,0-0.4-0.8-0.5-0.9c0-0.1,0-0.1,0.1-0.2c0-0.1-0.1-0.1-0.2-0.2 c0.2,0.1,0.3,0.3,0.5,0.3c-0.1-0.1-0.1-0.1-0.1-0.2c0,0,0.6,0.3,0.6,0.4c0,0-0.1,0-0.1,0C34,6,34.1,6,34.1,6.1c0,0,0,0,0,0 c0.1,0.1,0.2,0.1,0.2,0.1c0,0-0.1,0-0.1,0c0,0,0.1,0.1,0.5,0.4c0.6,0.4,1.6,1.2,1.6,1.4c-0.3-0.2-0.6-0.4-0.9-0.6 c0.6,0.5,1.1,1.1,1.8,1.6c0,0,0,0,0,0c-0.1-0.1-0.3-0.3-0.4-0.4c0.1,0,0.1,0.1,0.2,0.1c-0.4-0.4-0.4-0.4-0.4-0.5 c0,0,0.1,0.1,0.1,0.1l0,0l0.9,0.9c0.8,0.9,0.8,0.9,2.2,2.8c0.3,0.5,0.7,1.1,1,1.6c-0.2-0.3-0.5-0.5-0.8-0.8 c0.4,0.2,0.6,0.5,0.8,0.8l0.8,1.5c0.3,0.7,0.5,1,0.7,1.8c0,0,0,0,0,0c0,0.1,0,0.1,0.7,2.5c0,0,0,0,0,0c0.3,1.8,0.3,1.8,0.4,2.3 c0,0.2,0,0.3,0.1,0.5c0.1,0.6,0.1,1.5,0.1,2.1C43.6,24.8,43.5,25.6,43.5,26.2z M43.5,26.1c0-0.7,0-2-0.1-2.1c0,0.2-0.1,0.4,0,2.1 c0-0.1,0-0.1,0-0.4c0,0.8,0,0.8,0,0.9C43.5,26.4,43.5,26.4,43.5,26.1z M43,19.2C43,19.2,43,19.2,43,19.2l0.1,0.6c0,0,0,0,0,0 c0,0.3,0.1,0.6,0.2,0.9c-0.2-1.1-0.2-1.3-0.5-2.3c0-0.1-0.1-0.3-0.1-0.4c0.3,0.9,0.3,0.9,0.4,1.4C43,19.3,43,19.3,43,19.2z M42.6,17.8C42.6,17.8,42.6,17.8,42.6,17.8c0,0,0-0.1-0.1-0.2c0,0,0,0.1,0,0.1l-0.3-0.8l0,0c0-0.1,0-0.1,0-0.1 c0.1,0.3,0.2,0.7,0.4,1.3C42.6,17.9,42.6,17.8,42.6,17.8z M43.4,21.6c0-0.3-0.1-0.6-0.2-1C43.3,20.9,43.3,21.2,43.4,21.6 C43.4,21.6,43.4,21.6,43.4,21.6z M30.8,11C30.8,11,30.8,11,30.8,11c-0.1,0.2-0.2,0.5-0.2,0.5c0,0.1,0,0.2,0,0.2 c0.1,0.1,0.4,0.1,0.6-0.1c0.1,0,0.1-0.1,0.2-0.1c0.1,0,0.2,0,0.2-0.1c0,0,0-0.2,0-0.3c0-0.1-0.1-0.1-0.1-0.2 c-0.1-0.1-0.1-0.1,0-0.2c0,0,0-0.1,0-0.2c0-0.1-0.1-0.1-0.1-0.2c0,0-0.1,0-0.1-0.1c-0.1,0-0.2-0.1-0.2-0.1c-0.1,0-0.1,0-0.1-0.1 c0,0,0,0,0,0c0,0-0.5,0.1-0.2,0.3c0,0,0,0,0.1,0c0,0,0,0,0,0c-0.2,0.1-0.3,0.2-0.3,0.2c0,0-0.1,0.1-0.1,0.2c0,0,0,0.1,0.1,0.1 C30.7,11,30.8,11,30.8,11z M10.2,5.1C10.2,5.1,10.2,5.1,10.2,5.1C10.2,5.1,10.2,5.1,10.2,5.1c0,0-0.4,0.3-0.5,0.3 C9.8,5.3,9.8,5.3,10.2,5.1z M41.3,20.6C41.3,20.6,41.3,20.6,41.3,20.6C41.3,20.6,41.3,20.6,41.3,20.6c0,0-0.2-0.3-0.2-0.3 c0,0-0.1,0-0.1-0.1c-0.1,0-0.1,0-0.2,0c-0.1,0-0.1,0-0.1,0c0,0-0.1,0,0,0.1C40.8,20.4,41.2,20.6,41.3,20.6z M37.3,17.5 c0,0,0.1,0,0.1,0.1c0,0.1,0,0.1,0,0.2c0,0.1,0.1,0.1,0.1,0.1c0,0,0.3-0.1,0.3-0.3c0,0,0,0,0-0.1c0-0.1,0-0.2-0.1-0.2 c0-0.1,0-0.2,0-0.3c0-0.1-0.1-0.1-0.1-0.2c-0.1,0-0.3,0.1-0.3,0.2C37.3,17.2,37.2,17.5,37.3,17.5z M36.2,17.5c0,0,0.1-0.1,0.1-0.1 c0,0-0.1-0.1-0.2-0.1c-0.1,0-0.3,0-0.2,0.1C35.9,17.5,36,17.5,36.2,17.5C36.1,17.5,36.1,17.5,36.2,17.5z M37.3,16.4 C37.3,16.5,37.3,16.5,37.3,16.4c0,0.1,0,0.1,0,0.1c0,0,0.2,0.2,0.2,0.2c0,0,0-0.3,0-0.5c0,0-0.1-0.3-0.1-0.3c0,0,0,0,0,0 c0,0,0,0,0,0c0,0,0,0,0,0c0,0.1,0,0.2,0,0.2C37.4,16.4,37.3,16.4,37.3,16.4z M42,21.1c0,0,0.1,0,0.1,0c0,0,0-0.3,0-0.3c0,0,0,0,0,0 c0,0,0,0,0,0c0,0-0.1,0-0.1,0c0,0,0,0-0.1,0c0,0,0,0-0.1-0.1c0,0,0,0,0,0C41.9,20.8,41.9,21,42,21.1C42,21.1,42,21.1,42,21.1z M8,6.8C8,6.8,8,6.8,8,6.8C8,6.8,8,6.8,8,6.8c0.2-0.1,0.3-0.2,0.4-0.3C8.6,6.3,8.9,6.2,9.1,6c0.1,0,0.1,0,0.1-0.2c0,0,0,0,0,0 C9.1,5.8,9.1,5.9,9,5.9c0.1-0.1,0.1-0.1,0.1-0.1c0,0,0,0,0,0c0,0,0,0,0,0C8.8,6,8.8,6,7.5,7C7.4,7.1,7.3,7.2,7.3,7.4c0,0,0,0,0,0 C7.6,7.2,7.8,7,8,6.8z M9.7,5.6c0,0,0.1-0.1,0.2-0.1c0.4-0.2,0.6-0.3,0.6-0.3c0.1,0,0.3-0.1,0.4-0.1c0.1,0,0.4-0.3,0.4-0.3 c0.1,0,0.1-0.1,0.1-0.1c0,0-0.1,0-0.1,0c-0.1,0.1-0.2,0.1-0.3,0.2c0.1-0.1,0.3-0.2,0.4-0.4c0,0,0,0,0,0c0,0-0.4,0.2-0.5,0.3 c0,0-0.1,0.2-0.4,0.2c0,0,0,0,0,0c0,0,0,0,0,0c0,0,0,0,0,0c0-0.1,0.2-0.1,0.1-0.2c0,0-0.9,0.4-0.9,0.6c0,0,0,0,0.4-0.2 c0,0.1-0.1,0.1-0.2,0.1c0,0,0,0,0.1-0.1c0,0,0.1,0,0.2-0.1C10.3,5.2,10,5.4,9.7,5.6C9.7,5.5,9.7,5.6,9.7,5.6z M7.2,7.8 c0.1,0,0.1,0,0.2,0c0,0,0,0,0,0c0,0.1-0.1,0.1-0.1,0.2c0.1,0,0.7-0.3,1-0.6c0.1-0.1,0.2-0.1,0.2-0.2c0,0,0,0,0,0c0,0.1,0,0.1,0,0.1 c0,0,0.3,0.1,0.3,0.1C9,7.4,9,7.4,9.2,7.1c0,0,0,0,0,0c0,0,0,0-0.2,0.1C9,7.2,9.2,7,9.4,7c0.1,0,0.1,0,0.1,0c0,0,0.1-0.1,0.1-0.2 C9.4,6.7,9.4,6.6,9.4,6.5C9.5,6.5,10,5.9,9.9,5.8c0,0,0,0-0.1,0c0,0,0,0,0,0c0,0,0,0,0,0C9.6,6,9.5,6.2,9.2,6.4 c0-0.1,0.1-0.1,0.1-0.2c0,0,0,0,0,0c-0.1,0-0.2,0.1-0.3,0.1c0,0,0.1-0.1,0.1-0.1c0,0,0,0,0,0C9,6.2,8.9,6.3,8.8,6.4 C8.8,6.2,9,6.2,9.1,6.1C9,6.1,7.9,6.8,7.9,7c0,0,0,0,0,0c0,0,0,0-0.2,0.1C7.6,7.2,7.6,7.3,7.6,7.3c0,0,0,0,0,0 c0.1,0,0.2-0.1,0.3-0.1c0.1,0,0.2,0,0.3,0C8.1,7.3,7.9,7.4,7.8,7.4C7.2,7.6,7.1,7.8,7.2,7.8z M12.3,8.9C12.3,8.9,12.3,8.9,12.3,8.9 c-0.1,0-0.2,0-0.3,0C12,9,12,9.1,12,9.2C12.1,9.2,12.3,9,12.3,8.9z M12,8.5C12,8.5,12.1,8.5,12,8.5c0.1-0.1,0-0.1,0-0.2 c0,0-0.1-0.1-0.1-0.1c-0.1-0.1-0.1-0.2-0.2-0.2c0,0,0,0,0,0c-0.1,0-0.2,0-0.2-0.1c0,0,0-0.1-0.1-0.1c0,0,0,0,0,0 c-0.1,0-0.3,0.3-0.3,0.4c0,0-0.1,0.1-0.1,0.1l-0.2,0.4c0.1,0,0.1,0,0.2,0.1c0,0.1,0,0.1,0,0.1c0,0,0.1,0,0.1-0.1 c0.1-0.1,0.3-0.3,0.5-0.3C11.7,8.5,11.9,8.6,12,8.5z M11.6,8.8c0,0-0.3,0.1-0.4,0.1c-0.1,0-0.1,0.2,0,0.2 C11.3,9.2,11.6,8.9,11.6,8.8C11.7,8.8,11.7,8.8,11.6,8.8z M10.8,26.6c-0.1,0-0.1,0.2,0,0.3c0,0,0.4,0.1,0.4-0.1 C11.2,26.8,11,26.6,10.8,26.6z M32.3,10.9C32.2,10.9,32.2,11,32.3,10.9l0.1,0C32.3,10.9,32.3,10.9,32.3,10.9z M17.9,12.5 c0.1-0.2,0.2-0.3,0.2-0.4c0,0,0,0,0,0c-0.1,0-0.3,0.2-0.4,0.4c-0.2,0.2-0.3,0.5-0.5,0.8c-0.1,0.1-0.2,0.2-0.3,0.4 c0,0.1,0,0.1,0,0.1c0,0,0,0,0.6,0.1c0.3,0,0.6,0.1,0.8,0.1c0,0,0.1,0,0.1,0c0.1,0,0.2-0.1,0.3,0c0,0,0,0.1,0.1,0.2 c0,0.1,0,0.1,0,0.1c0.1,0,0.2-0.2,0.2-0.3c0-0.2-0.2-0.6-0.3-0.8c-0.1-0.1-0.1-0.1-0.4,0c-0.1,0-0.1,0-0.1-0.1 c0-0.2-0.1-0.2-0.1-0.2c0,0,0,0,0-0.1C17.8,12.6,17.8,12.6,17.9,12.5z M31.3,9.5c0,0.1-0.1,0.2,0,0.4c0,0,0.1,0,0.3-0.1 c0.1,0,0.1-0.1,0.1-0.1c0.2,0.1,0,0.3,0,0.4c0.1,0.3,0.2,0.3,0.4,0.3c0.3,0.1,0.3,0.1,0.3,0.1c0,0,0,0.1,0,0.1 c0.1,0.1,0.2,0.2,0.3,0.4c0,0.1-0.1,0.1-0.3,0c-0.1,0-0.1,0-0.2,0c0.1,0.2,0.3,0.3,0.3,0.5c0,0.1-0.1,0.2-0.2,0.2 c0,0-0.1,0-0.1,0.1c0,0,0.1,0.1,0.4,0.1c0.1,0,0.4,0,0.4,0.1c0,0.1-0.1,0.1-0.2,0.1c-0.1,0-0.1,0-0.2,0.1c-0.1,0.1-0.1,0.2-0.1,0.2 c-0.1,0.1-0.2,0.1-0.3,0.2c0,0,0,0,0,0c0,0,0,0,0.7-0.1c0.3,0,0.6,0,0.9-0.1c0,0,0,0,0,0l0.5-0.2c0,0,0,0,0,0 c-0.1-0.1-0.3,0-0.4-0.1c-0.1-0.2,0.1-0.3,0-0.5c-0.1-0.3-0.2-0.3-0.3-0.3c-0.2,0-0.3-0.3-0.3-0.3c0,0,0,0,0,0c0,0,0,0,0.2,0 c0.1,0,0.2,0.1,0.2,0c0,0,0,0,0,0c0,0,0,0-0.1-0.1c-0.3-0.2-0.6-0.3-0.8-0.5c-0.1-0.1-0.2-0.3-0.3-0.3C32.4,10,32.2,10,32.1,10 c0,0,0,0,0,0c0.1-0.1,0.3-0.7-0.1-0.7c-0.1,0-0.1,0-0.2,0c-0.2,0-0.3,0-0.3,0c0-0.1,0.2-0.4,0-0.4c0,0-0.5,0-0.5,0.2c0,0,0,0,0,0.1 C31.1,9.2,31.2,9.3,31.3,9.5z M1.5,15.5c0.1-0.1,0.1-0.3,0.1-0.4c0-0.1,0.1-0.2,0.1-0.2c0,0,0,0,0,0c0,0,0-0.1,0-0.1c0,0,0,0,0,0 C1.6,14.8,1.5,15.5,1.5,15.5C1.5,15.5,1.5,15.5,1.5,15.5z M28.3,6.4C28.3,6.4,28.3,6.4,28.3,6.4c0-0.1-0.1-0.2-0.2-0.2c0,0,0,0,0,0 c-0.1,0-0.3,0-0.4-0.1c-0.1,0-0.2-0.1-0.3-0.1c-0.1,0-0.2,0.1-0.4,0.1c-0.1,0-0.2,0-0.4,0.1c-0.1,0,0,0.1-0.1,0.2 c-0.1,0-0.1,0-0.2,0c0,0,0,0,0,0c0,0.1,0.1,0.2,0,0.3c0,0-0.3-0.2-0.4-0.3c-0.1-0.2-0.5-0.3-0.7-0.2c0,0.1,0.2,0.1,0.2,0.2 c0,0.1-0.2,0.1-0.3,0.2c0,0,0.2,0,0.3,0c0.1,0,0.6,0.1,0.3,0.3c0.1,0.1,0.2,0,0.4,0.1c0.1,0,0.1,0.1,0.1,0.2c0,0,0.1,0,0.3,0 c0.2,0,0.2,0,0.3,0c0.1,0,0.2,0.1,0.3,0.1c0,0,0,0,0,0c0,0,0.1,0,0.4-0.1c0.3-0.1,0.7-0.4,0.7-0.5C28.3,6.5,28.3,6.5,28.3,6.4 C28.3,6.4,28.3,6.4,28.3,6.4z M11.2,26.1c0.1,0.2,0.9,0.2,0.9,0.1c0-0.1-1-1.2-1-1.2c-0.1-0.1-0.4-0.3-1-0.2 c-0.3,0.1-0.6,0.3-0.6,0.3c0,0,0.3,0,0.5-0.1c0.3-0.2,0.5-0.1,0.5,0c0,0-0.1,0.1-0.1,0c0,0,0,0,0,0c0,0.1,0.2,0.2,0.4,0.2 c0.3,0.1,0.3,0.1,0.4,0.3c0,0.1,0,0.1,0.1,0.2c0,0.1,0.1,0.1,0.1,0.1C11.4,26.1,11.3,26.1,11.2,26.1z M12.5,27.1 c0.1,0,0,0.2,0.1,0.2c0.2,0,0.2-0.3,0.4-0.3c0,0,0,0,0.1,0c0.3,0.1,0.8,0.1,0.8,0.1c0,0,0,0,0,0c0-0.1-0.1-0.2,0-0.3 c0.1-0.3-1.4-0.4-1.5-0.4c0,0,0,0,0,0c0,0,0,0,0,0c0.2,0.2,0.1,0.4,0.1,0.5c0,0-0.1,0-0.3,0c-0.3,0-0.3,0-0.3,0c0,0,0,0,0,0 C12.1,27,12.3,27,12.5,27.1z M15.4,13.2c-0.1,0,0.2,0.2,0.2,0.2c0.4,0.2,0.5,0,0.5,0C16.2,13.3,15.6,13.2,15.4,13.2z M39.1,37.3 c-0.4,0.5-0.4,0.6-0.7,0.6c-0.2,0.1-0.3,0.2-0.6,0.7c-0.2,0.2-0.2,0.3-0.4,0.4c-0.5,0.4-1.2,1.3-1.2,1.4c0.2,0,0.2,0,0.9-0.7 c0.6-0.6,1.1-1.2,1.6-1.7c0,0,0,0,0,0.1c0,0,0,0,0.1-0.1c0.1-0.2,0.5-0.7,0.6-0.9c0,0,0,0,0,0C39.2,37.1,39.2,37.1,39.1,37.3z M25.2,33.5C25.2,33.5,25.2,33.6,25.2,33.5c0,0-0.3,1-1.2,1.3c0,0,0,0.1,0,0.1c0.1,0.1,0,0.2-0.1,0.4c-0.1,0.2,0,0.4,0,0.5 c0,0.3,0,0.6,0,1c0,0.1,0,0.1-0.2,0.1c-0.1,0-0.2,0-0.3,0.1c-0.3,0.2-0.3,0.7-0.6,0.8c-0.2,0.1-0.5,0.3-0.7,0.6 c0,0-0.4,2.6-1.5,2.6l0.1,0.2c0.1,0.2,0,0.6-0.5,0.4c0,0,0,0-0.1,0c0,0.2,0,0.2-0.2,0.4c0.3,0.5,0.3,0.5,0.3,0.5 c-0.3,0-0.3,0-0.3,0c0.4,1.1,0.4,1.1,0.6,1.3c-0.1,0.6-0.1,0.6,1.3,1.4c0,0-1.5,0.3-3.1-2c-1.2-1.8-1.9-5-1.9-5 c-0.1-0.7-0.4-1.2-0.8-1.5c-0.5-0.3-1.1-0.4-1.5-0.8c0,0-1.9-1.9-2.3-2.6c0,0-0.1-0.1-0.1-0.1c-0.1-0.3,0.2-1.6,0.2-1.7 c0.3-0.8,0.3-0.8,0.3-1c-0.1-0.6-0.5-1.8-1.1-0.8c-1.4,0-1.9-1.5-3.1-1.7c0,0-0.1,0-0.1,0c-0.3,0-0.3,0-1.1-0.5 c-0.3-0.2-0.7,0-1.1-0.1c-0.3-0.1-0.7-0.1-1-0.2c-0.1,0-0.2-0.1-0.3-0.1c-0.1,0-0.1,0-0.2-0.1c-0.3-0.2-0.3-0.7-0.4-1 c-0.2-0.4-0.6-0.6-0.9-1c-0.2-0.3-0.4-0.5-0.6-0.8c-0.1-0.1-0.1-0.3-0.2-0.5c-0.1-0.3-0.1-0.5-0.5-0.8c0.3,1.4,0.5,1.7,0.7,2 c0.4,0.6,0.3,0.7,0.2,0.8c0,0-0.9-1.1-1-1.4c0.1,0,0.2,0,0.2,0c-1-2-1-2-1-2c-0.4-0.8-0.2-5.1,0.5-5.9c0.1,0,0.1,0.1,0.2,0.1 c0-0.2,0-0.3-0.1-0.5c0,0,0,0,0,0c0,0,0,0.1,0,0.1c0,0,0,0.1,0,0.1c0,0,0,0.1-0.1,0.1c0,0-0.1,0-0.2-0.1c-0.1-0.2,0-0.4,0-0.4 c0,0,0,0,0,0c0,0,0,0.1,0.1,0.1c0,0,0,0.1,0,0.1c0,0,0,0,0,0c0,0,0.1,0,0.1,0c0-0.2-0.1-0.3-0.1-0.5c0.1-0.7,0.1-0.7,0.3-1.1 c0,0,0-0.1-0.1-0.1C2,14.3,2,14.2,2,14.1c0-0.3,0-0.3,0.4-1.3c0,0,0,0,0,0c0.6-1,0.6-1,1.9-2.8c0.3-0.4,0.7-0.8,1-1.2 c0,0,0,0.1-0.1,0.1c0.5-0.5,0.9-0.8,0.9-0.8C6.1,8.3,5.9,8.5,5.7,8.6c0,0,0,0,0,0c0.6-0.5,0.6-0.5,0.9-0.8C6.4,8.1,6.4,8.1,6.3,8.2 C6.5,8.1,6.5,8.1,6.5,8c0,0-0.1,0.1-0.1,0.1C6.6,8.1,6.6,8,6.8,7.9C6.8,8,6.8,8,6.8,8C7,8.1,7,8,7.1,8c0,0,0,0,0,0 c0,0.2-0.2,0.2-0.3,0.4c0.3,0,0.5-0.2,0.7-0.2c0,0.1-0.1,0.3-0.1,0.4c0.3-0.6,0.4-0.8,0.9-1c0,0.1,0,0.1,0.1,0.2 c0.6,0,0.7-0.1,0.8-0.1c0.5-0.4,0.5-0.4,0.6-0.3C9.6,7.6,9.6,7.6,9.7,7.8c0.1-0.3,0.5-0.4,0.7-0.8c0,0,0,0-0.1,0c0,0,0,0,0,0 s0,0,0,0c0.1-0.1,0.1-0.1,0.3-0.2c0,0,0,0,0-0.1c-0.1,0-0.2,0-0.3,0c0,0,0,0,0-0.1c0,0,1.1-1.6,2-1.8c0.1,0,0.1,0,0.2,0 c-1,0.6-1,0.6-1.3,1c0,0,0,0,0.1,0c0,0.1,0,0.1-0.4,0.7c0.2,0,0.2,0,0.2,0c0,0-0.3,0.3-0.2,0.5c0.2-0.2,0.3-0.4,0.5-0.5 c0.2,0.2-0.3,0.4-0.3,0.6c0.4,0.4,0.6-0.4,0.9-0.6c0.2-0.8,0.7-0.2,0.7-0.2c0,0.1,0,0.1-0.1,0.2c-0.1,0.1-0.2,0.1-0.3,0.2 c-0.1,0.1,0,0.2,0,0.4c0,0-0.1,0.1-0.1,0.1c-0.2,0.1-0.2,0.1-0.8,0.4c-0.2-0.1-0.4,0.1-0.4,0.1c0,0,0.1,0,0.1,0 C11,8.1,10.6,7.9,10.2,8c0.3,0.2,0.4,0.2,0.8,0.1c-0.5,0.6-0.5,0.6-1.5,0.8c0.1,0.1,0.3,0,0.3,0.2c-0.5,0.4-1.7,1.3-1.6,1.7 c0.4,0,0.4,0,0.4,0.2c0.1,0.5,0.1,0.5,0.1,0.5c0.2,0,0.3-0.2,0.5-0.2c0,0,0.1,0,0.1,0c0.2,0.1,0.3,0.3,0.6,0.4 c0.2,0.1,0.5-0.1,0.7,0.1c0,0,0.1,0,0.1,0c0,0,0,0.1,0,0.1c0,0-0.1,0.1-0.1,0.1c0.1,0.2,0.1,0.3,0,0.6c0.2,0.2,0.5,0.2,0.6,0.5 c0.5-0.4,0.2-0.9,0.3-1.4c0.1-0.1,0.1-0.1,0.1-0.1c0-0.2,0.2-0.2,0.3-0.3c0.4-0.1,0.4-0.9,0.4-0.9c0-0.2-0.2-0.3-0.2-0.5 c0-0.2,0.2-0.2,0.2-0.4c-0.2-0.3,0.1-0.6,0.1-0.9c0.3-0.1,0.6-0.1,1-0.1c0.1,0,0.1,0,0.2,0C13.9,8.8,14,8.8,14,8.9 C14,8.9,14,9,14.1,9c0.1,0.1,0.3,0,0.4,0c-0.1,0.1-0.2,0.6-0.2,0.7c0.2,0.1,0.4,0.3,0.7,0.2c0,0,0,0,0.2-0.2c0.1-0.1,0.2,0,0.3-0.1 c0.1-0.1,0-0.2,0-0.2c0.2-0.5,0.2-0.5,0.7,0.4c0.2,0.4,0.2,0.4,0.1,0.5c-0.1,0.1-0.1,0.1-0.1,0.2c0.1,0.1,0.2,0.1,0.3,0.2 c0.1,0.1,0,0.2,0,0.3c0,0,0,0,0.1,0c1.6-0.4,0.1,0.6,0.1,0.6c0,0,0,0.1,0,0.1c0.4-0.2,0.6-0.3,0.7-0.3c0,0,0,0,0.1,0 c0.1,0,0.2,0,0.3,0.1c0,0,0,0.1,0.1,0.1c-0.1,0.3-0.1,0.3,0,0.4c-0.2,0.4-1.6,1.1-2,0.9c-1.4,0.4-1.4,0.4-2.8,1.9 c2-1.3,2-1.3,2.1-1.1c-0.1,0.3-0.3,0.3-0.5,0.4c0.1,0.1,0.1,0.1,0.3,0.2c0.1,0.2,0.1,0.3,0.3,0.4c-0.1-0.1,0-0.3,0-0.3c0,0,0,0,0,0 c0,0,0,0,0,0c0,0.1,0,0.1,0.1,0.2c0,0,0.2,0.1,0.4,0c0,0,0,0,0,0c0,0,0,0,0,0c0,0,0,0,0,0c0,0-0.1,0.1-0.2,0.2 c0.1,0,0.3,0.1,0.4,0.1c0.1-0.2,0.1-0.5,0.4-0.6c0.3,0.7-1.3,1.7-1.8,1.7c0-0.2,0-0.2,0.8-0.7c0,0,0-0.1,0-0.1c-0.1,0-0.2,0-0.2,0 c0,0,0-0.1,0-0.1c-1.3,0.8-1.3,0.8-1.4,0.8c-0.5,0.4-0.5,0.4-0.5,1.3c-0.1,0-1,0.5-1,0.5c-0.2,0.2-0.2,0.5-0.3,0.8 c0-0.1-0.1-0.2-0.2-0.3c-0.1,1-0.1,1-0.1,1.1c0,0,0-0.7,0-1l-0.2,1.6c0,0,0.1,0,0.1,0c0,0,0,0.1,0,0.1c0,0-0.1,0-0.1,0 c0,0,0,0.1,0,0.1c0,0,0,0.1,0.1,0.1c0,0,0,0,0,0c-0.5,0.6-1.3,0.8-1.5,1.6c-0.1,0.8,1.1,1.6,0.3,2.4c-0.7-0.4-0.2-1.4-0.9-1.7 c0,0-1.6,0.1-1.8,0.3c0,0,0,0.1,0,0.1c0.1,0.1,0.2,0.1,0.3,0.2C8,22.9,8,22.9,8,23c0,0-1-0.2-1.3,0C6.6,23.1,6,23.7,5.9,24 c-0.1,0.3,0.2,0.4,0.2,0.6c0,0.4-0.3,0.7-0.2,1C6,26,6.2,26.6,7,27c0.3,0.2,0.5-0.2,0.8-0.2c0.2-2,1-1.3,1.1-1.2 c-0.1,0.5-0.1,0.5-0.3,1c0.1,0.3,0.1,0.3,0,0.8c0.5,0,1-0.2,1.5,0c0,0,0.3,0.5,0.2,1.2c-0.2,1.1,1.5,0.4,2.2,0.8 c0.2-1.8,1.9-1.5,4.1-1.2c0.1,0,0.2,0,0.2,0.1c0.5,0.2,0.7,0.7,1.2,0.9c0.5,0.3,1.2,0.2,1.7,0.5c0.4,0.2,0.7,0.7,1.1,0.9 c0.2,0.3,0.3,0.7,0.6,0.8c0.6,0.2,1.3,0.3,1.9,0.5c0.4,0.1,0.7,0.5,1.2,0.6c0.1,0,0.3-0.1,0.4,0c0.2,0.1,0,0.3,0,0.5 C25.1,33.4,25.2,33.4,25.2,33.5z M2.4,12.8C2.4,12.8,2.4,12.8,2.4,12.8C2.4,12.8,2.4,12.8,2.4,12.8L2.4,12.8z M14.4,27.2 c-0.1,0.1,0,0.2,0.2,0.3c0.1,0,0.4,0,0.4-0.1c0,0,0-0.1-0.3-0.1C14.5,27.2,14.5,27.2,14.4,27.2z"></path> </g> </svg> 